<?xml version="1.0" encoding="UTF-8"?>
<svg id="Layer_2" data-name="Layer 2" xmlns="http://www.w3.org/2000/svg" viewBox="0 0 170.32 170.32">
  <defs>
    <style>
      .cls-1, .cls-2 {
        stroke-width: 0px;
      }

      .cls-2 {
        fill: none;
      }
    </style>
  </defs>
  <g id="Layer_1-2" data-name="Layer 1">
    <g>
      <rect class="cls-2" width="170.32" height="170.32"/>
      <g>
        <path class="cls-1" d="M146.64,136.41c-22.13.02-42.46-12.19-52.83-31.75,0-.02-.02-.03-.03-.05-1.25-2-3.17-3.5-5.41-4.23-4.5-1.51-9.44.3-11.9,4.36-10.38,19.51-30.69,31.69-52.79,31.66h-.18c-2.49,0-4.5-2.01-4.51-4.49,0-1.84,1.11-3.49,2.81-4.18-4.74-.97-7.8-5.59-6.83-10.33.67-3.3,3.18-5.93,6.45-6.75-3.82-.94-6.67-4.39-6.67-8.5s2.85-7.56,6.67-8.5c-3.82-.94-6.67-4.39-6.67-8.5s2.85-7.56,6.67-8.5c-3.82-.94-6.67-4.39-6.67-8.5s2.85-7.56,6.67-8.5c-3.82-.94-6.67-4.39-6.67-8.5s3.04-7.8,7.06-8.59c-2.3-.95-3.39-3.58-2.44-5.88.69-1.68,2.33-2.78,4.15-2.78h.18c22.11-.03,42.43,12.16,52.8,31.69,1.25,2.05,3.19,3.59,5.48,4.34,4.47,1.5,9.38-.28,11.85-4.29,10.37-19.55,30.7-31.76,52.83-31.74h0c2.49,0,4.51,2,4.51,4.49,0,1.83-1.09,3.48-2.78,4.17,4.11.77,7.17,4.33,7.17,8.6s-2.85,7.56-6.67,8.5c3.82.94,6.67,4.39,6.67,8.5s-2.85,7.56-6.67,8.5c3.82.94,6.67,4.39,6.67,8.5s-2.85,7.56-6.67,8.5c3.82.94,6.67,4.39,6.67,8.5s-2.85,7.56-6.67,8.5c3.82.94,6.67,4.39,6.67,8.5s-3.03,7.79-7.05,8.58c2.3.93,3.41,3.56,2.48,5.86-.69,1.7-2.34,2.81-4.18,2.81h-.19.01ZM102.38,101.57c7.51,13.34,20.65,22.57,35.75,25.12.41-3.65,3.05-6.66,6.62-7.54-3.82-.94-6.67-4.39-6.67-8.5s2.85-7.56,6.67-8.5c-3.82-.94-6.67-4.39-6.67-8.5s2.85-7.56,6.67-8.5c-3.82-.94-6.67-4.39-6.67-8.5s2.85-7.56,6.67-8.5c-4.69-1.13-7.59-5.85-6.46-10.54.76-3.17,3.22-5.65,6.39-6.44-3.57-.87-6.22-3.89-6.63-7.54-15.08,2.57-28.2,11.82-35.69,25.16l-.04.08c-1.86,3.69-4.85,6.68-8.54,8.54-4.54,2.29-9.81,2.68-14.64,1.06-4.84-1.59-8.83-5.04-11.1-9.6-7.49-13.41-20.66-22.7-35.81-25.26-.41,3.65-3.05,6.66-6.62,7.55,3.82.94,6.67,4.39,6.67,8.5s-2.85,7.56-6.67,8.5c3.82.94,6.67,4.39,6.67,8.5s-2.85,7.56-6.67,8.5c3.82.94,6.67,4.39,6.67,8.5s-2.85,7.56-6.67,8.5c3.82.94,6.67,4.39,6.67,8.5s-2.85,7.56-6.67,8.5c3.57.88,6.21,3.89,6.62,7.54,15.15-2.55,28.32-11.84,35.82-25.25,1.86-3.69,4.85-6.68,8.54-8.54,4.54-2.29,9.81-2.68,14.64-1.06,4.84,1.59,8.83,5.04,11.1,9.6l.06.13h0Z"/>
        <path class="cls-1" d="M52.91,105.15c-2.49,0-4.5-2.01-4.51-4.49,0-1.68.93-3.22,2.42-4,3.15-1.63,5.76-4.14,7.52-7.23.81-1.56,1.8-3,2.96-4.31-1.15-1.31-2.15-2.75-2.96-4.3-1.76-3.09-4.38-5.6-7.53-7.25-2.15-1.25-2.87-4.01-1.62-6.15,1.17-2.01,3.68-2.8,5.78-1.82,4.72,2.46,8.62,6.23,11.23,10.86l.08.14c.98,1.92,2.46,3.55,4.28,4.72,2.1,1.33,2.72,4.11,1.38,6.21-.35.55-.82,1.02-1.37,1.38-1.82,1.16-3.3,2.79-4.28,4.71l-.09.16c-2.62,4.63-6.52,8.4-11.24,10.86-.64.34-1.35.51-2.07.51h.02ZM117.42,105.15c-.7,0-1.42-.17-2.08-.51-4.77-2.49-8.7-6.32-11.31-11.02-.99-1.92-2.47-3.55-4.29-4.72-2.09-1.33-2.71-4.09-1.38-6.18.36-.56.83-1.03,1.39-1.39,1.82-1.16,3.29-2.79,4.27-4.71l.09-.16c2.61-4.64,6.52-8.41,11.24-10.87,2.22-1.12,4.93-.23,6.04,1.99,1.1,2.18.26,4.83-1.88,5.99-3.15,1.64-5.76,4.15-7.52,7.24-.8,1.55-1.8,3-2.96,4.31,1.16,1.3,2.15,2.74,2.95,4.29,1.76,3.09,4.37,5.61,7.53,7.26,2.2,1.16,3.04,3.88,1.88,6.08-.78,1.47-2.3,2.4-3.97,2.4Z"/>
      </g>
    </g>
  </g>
</svg>