<svg xmlns="http://www.w3.org/2000/svg" viewBox="0 0 140.81 102.51"><path d="M131.87 102.51a59.72 59.72 0 0 1-52.83-31.75c0-.02-.02-.03-.03-.05a10.1 10.1 0 0 0-5.41-4.23 10.14 10.14 0 0 0-11.9 4.36A59.72 59.72 0 0 1 8.91 102.5h-.18a4.5 4.5 0 0 1-1.7-8.67 8.76 8.76 0 0 1-.38-17.08c-3.82-.94-6.67-4.39-6.67-8.5s2.85-7.56 6.67-8.5c-3.82-.94-6.67-4.39-6.67-8.5s2.85-7.56 6.67-8.5c-3.82-.94-6.67-4.39-6.67-8.5s2.85-7.56 6.67-8.5c-3.82-.94-6.67-4.39-6.67-8.5s3.04-7.8 7.06-8.59A4.5 4.5 0 0 1 8.75 0h.18a59.7 59.7 0 0 1 52.8 31.69 10.07 10.07 0 0 0 5.48 4.34 10.14 10.14 0 0 0 11.85-4.29A59.75 59.75 0 0 1 131.89 0h.01a4.5 4.5 0 0 1 1.73 8.66c4.11.77 7.17 4.33 7.17 8.6s-2.85 7.56-6.67 8.5c3.82.94 6.67 4.39 6.67 8.5s-2.85 7.56-6.67 8.5c3.82.94 6.67 4.39 6.67 8.5s-2.85 7.56-6.67 8.5c3.82.94 6.67 4.39 6.67 8.5s-2.85 7.56-6.67 8.5c3.82.94 6.67 4.39 6.67 8.5s-3.03 7.79-7.05 8.58a4.5 4.5 0 0 1-1.7 8.67h-.19ZM87.61 67.67a50.7 50.7 0 0 0 35.75 25.12 8.77 8.77 0 0 1 6.62-7.54c-3.82-.94-6.67-4.39-6.67-8.5s2.85-7.56 6.67-8.5c-3.82-.94-6.67-4.39-6.67-8.5s2.85-7.56 6.67-8.5c-3.82-.94-6.67-4.39-6.67-8.5s2.85-7.56 6.67-8.5a8.74 8.74 0 0 1-.07-16.98 8.77 8.77 0 0 1-6.63-7.54 50.7 50.7 0 0 0-35.69 25.16l-.04.08a19.27 19.27 0 0 1-8.54 8.54 19.06 19.06 0 0 1-14.64 1.06 19.01 19.01 0 0 1-11.1-9.6A50.7 50.7 0 0 0 17.46 9.71a8.8 8.8 0 0 1-6.62 7.55c3.82.94 6.67 4.39 6.67 8.5s-2.85 7.56-6.67 8.5c3.82.94 6.67 4.39 6.67 8.5s-2.85 7.56-6.67 8.5c3.82.94 6.67 4.39 6.67 8.5s-2.85 7.56-6.67 8.5c3.82.94 6.67 4.39 6.67 8.5s-2.85 7.56-6.67 8.5a8.78 8.78 0 0 1 6.62 7.54 50.7 50.7 0 0 0 35.82-25.25 19.27 19.27 0 0 1 8.54-8.54 19.06 19.06 0 0 1 14.64-1.06 19.01 19.01 0 0 1 11.1 9.6l.06.13Zm44.36-59.16Z" class="cls-1"/><path d="M38.14 71.25a4.5 4.5 0 0 1-2.09-8.49 18.38 18.38 0 0 0 7.52-7.23c.81-1.56 1.8-3 2.96-4.31a21.88 21.88 0 0 1-2.96-4.3 18.57 18.57 0 0 0-7.53-7.25 4.5 4.5 0 0 1 4.16-7.97 27.45 27.45 0 0 1 11.23 10.86l.08.14a12.2 12.2 0 0 0 4.28 4.72 4.5 4.5 0 0 1 .01 7.59 12.13 12.13 0 0 0-4.28 4.71l-.09.16a27.47 27.47 0 0 1-11.24 10.86 4.4 4.4 0 0 1-2.07.51Zm64.51 0c-.7 0-1.42-.17-2.08-.51a27.53 27.53 0 0 1-11.31-11.02A12.33 12.33 0 0 0 84.97 55a4.48 4.48 0 0 1 .01-7.57 12.18 12.18 0 0 0 4.27-4.71l.09-.16a27.43 27.43 0 0 1 11.24-10.87 4.5 4.5 0 0 1 4.16 7.98 18.46 18.46 0 0 0-7.52 7.24 21 21 0 0 1-2.96 4.31 21.1 21.1 0 0 1 2.95 4.29 18.53 18.53 0 0 0 7.53 7.26 4.5 4.5 0 0 1-2.09 8.48Z" class="cls-1"/></svg>