<?xml version="1.0" encoding="UTF-8"?>
<svg id="Layer_2" data-name="Layer 2" xmlns="http://www.w3.org/2000/svg" viewBox="0 0 170.32 170.32">
  <defs>
    <style>
      .cls-1, .cls-2 {
        stroke-width: 0px;
      }

      .cls-2 {
        fill: none;
      }
    </style>
  </defs>
  <g id="Layer_1-2" data-name="Layer 1">
    <g>
      <rect class="cls-2" width="170.32" height="170.32"/>
      <g>
        <path class="cls-1" d="M55.34,71.76c-6.59-.24-12.95,2.4-17.44,7.22-4.16,4.42-6.38,10.32-6.16,16.38.42,12.02,10.07,21.67,22.09,22.09h.76c12.64-.03,22.86-10.31,22.82-22.95-.02-5.76-2.21-11.31-6.14-15.53-4.13-4.44-9.87-7.04-15.93-7.22h0ZM54.59,108.47h-.46c-7.29-.26-13.14-6.1-13.4-13.39-.12-3.7,1.2-7.23,3.73-9.93,2.51-2.69,5.99-4.27,9.67-4.38h.91c3.7.12,7.13,1.68,9.66,4.38,5.22,5.61,4.9,14.4-.72,19.62-2.56,2.38-5.91,3.7-9.4,3.71h0Z"/>
        <path class="cls-1" d="M149.9,106.46h.91c2.49.08,4.57-1.88,4.65-4.37,0-.04,0-.09,0-.13v-39.65c0-.24-.04-.48-.08-.72l-.08-.3c-.04-.17-.09-.33-.15-.49l-.14-.32c-.07-.14-.14-.28-.23-.42-.06-.1-.12-.2-.19-.29l-.31-.38c-.26-.28-.56-.53-.88-.75-.14-.09-.29-.17-.44-.24l-.3-.15-.06-.03L42.08,15.17c-1.44-.56-3.06-.35-4.3.57-7.25,5.33-13.12,12.32-17.12,20.38-4.02,8.16-6.01,17.18-5.79,26.28v88.56c0,2.49,2.01,4.5,4.5,4.5h36.89c2.49,0,4.5-2.01,4.5-4.5,0-2.35.92-4.56,2.58-6.22,3.46-3.42,9.05-3.39,12.47.07,1.62,1.64,2.53,3.84,2.55,6.15,0,2.49,2.01,4.5,4.5,4.5h68.11c2.49,0,4.5-2.01,4.5-4.5v-12.3c0-2.49-2.02-4.5-4.51-4.49-.05,0-.1,0-.14,0-3.67.13-7.25-1.21-9.93-3.73-5.58-5.26-5.84-14.04-.58-19.62,2.5-2.65,5.95-4.22,9.6-4.35h0ZM28.73,40.12c3-6.04,7.25-11.37,12.46-15.64l85.83,33.44H23.95c.41-6.19,2.03-12.24,4.77-17.8h0ZM134.74,137c3.31,3.1,7.36,5.1,11.73,5.84v3.62h-59.69c-2.06-7.83-9.13-13.29-17.22-13.3-4.75,0-9.22,1.85-12.58,5.21-2.24,2.23-3.85,5.03-4.65,8.09h-28.47v-79.54h122.6v30.86c-4.91.83-9.4,3.26-12.79,6.91-4.16,4.42-6.38,10.32-6.16,16.38.2,6.1,2.77,11.76,7.23,15.94h0Z"/>
        <path class="cls-1" d="M105.58,101.92c-6.11.26-10.85,5.42-10.59,11.53.24,5.74,4.85,10.35,10.59,10.59,6.11-.26,10.85-5.42,10.59-11.53-.24-5.74-4.85-10.35-10.59-10.59ZM105.58,115.04c-1.13.08-2.12-.78-2.2-1.91-.08-1.13.78-2.12,1.91-2.2.1,0,.19,0,.29,0,1.13.08,1.99,1.06,1.91,2.2-.07,1.02-.89,1.84-1.91,1.91Z"/>
      </g>
    </g>
  </g>
</svg>