<svg xmlns="http://www.w3.org/2000/svg" viewBox="0 0 140.61 140.6"><path d="M40.49 56.9a22.72 22.72 0 0 0-17.44 7.22 22.71 22.71 0 0 0-6.16 16.38 22.91 22.91 0 0 0 22.09 22.09l.76.01a22.89 22.89 0 0 0 16.68-38.49 22.68 22.68 0 0 0-15.93-7.22Zm-.75 36.71h-.46a13.9 13.9 0 0 1-13.4-13.39c-.12-3.7 1.2-7.23 3.73-9.93a13.77 13.77 0 0 1 9.67-4.38h.91c3.7.12 7.13 1.68 9.66 4.38a13.88 13.88 0 0 1-10.12 23.33Z" class="cls-1"/><path d="M135.05 91.6h.91a4.51 4.51 0 0 0 4.65-4.5V47.56l-.01-.11c0-.24-.03-.48-.07-.72l-.08-.3a3.97 3.97 0 0 0-.15-.49l-.14-.32c-.07-.14-.14-.28-.23-.42a4.8 4.8 0 0 0-.19-.29l-.31-.38a5.1 5.1 0 0 0-.88-.75 3.75 3.75 0 0 0-.44-.24l-.3-.15-.06-.03L27.23.31a4.48 4.48 0 0 0-4.3.57A56.53 56.53 0 0 0 5.81 21.26 56.38 56.38 0 0 0 .02 47.54v88.56a4.5 4.5 0 0 0 4.5 4.5h36.89a4.5 4.5 0 0 0 4.5-4.5c0-2.35.92-4.56 2.58-6.22a8.82 8.82 0 0 1 15.02 6.22 4.5 4.5 0 0 0 4.5 4.5h68.11a4.5 4.5 0 0 0 4.5-4.5v-12.3a4.5 4.5 0 0 0-4.65-4.49 13.8 13.8 0 0 1-9.93-3.73 13.88 13.88 0 0 1 9.02-23.97ZM13.88 25.26A47.58 47.58 0 0 1 26.34 9.62l85.83 33.44H9.1a47.39 47.39 0 0 1 4.77-17.8Zm106.01 96.88c3.31 3.1 7.36 5.1 11.73 5.84v3.62H71.93a17.84 17.84 0 0 0-17.22-13.3c-4.75 0-9.22 1.85-12.58 5.21a17.72 17.72 0 0 0-4.65 8.09H9.01V52.06h122.6v30.86a22.64 22.64 0 0 0-12.79 6.91 22.73 22.73 0 0 0-6.16 16.38c.2 6.1 2.77 11.76 7.23 15.94Z" class="cls-1"/><path d="M90.73 87.06a11.07 11.07 0 0 0 0 22.12 11.07 11.07 0 0 0 0-22.12Zm0 13.12a2.06 2.06 0 1 1 0-4.11 2.06 2.06 0 0 1 0 4.11Z" class="cls-1"/></svg>