<svg xmlns="http://www.w3.org/2000/svg" viewBox="0 0 32 33"><path d="M29 17.9a13.1 13.1 0 0 0-1.3-6.7 17 17 0 0 1-5.8 3.6 25.3 25.3 0 0 1-.3 6.4c2.7-.7 5.2-1.8 7.4-3.3ZM19.5 21.6a23.1 23.1 0 0 0 .5-6.2 17 17 0 0 1-8 0 23.4 23.4 0 0 0 .5 6.2 23.2 23.2 0 0 0 7 0ZM13 23.7a25.3 25.3 0 0 0 6 0 23 23 0 0 1-3 6.2 23 23 0 0 1-3-6.2ZM10.4 21.2a25.2 25.2 0 0 1-.3-6.4 17 17 0 0 1-5.8-3.6A13 13 0 0 0 3 18c2.2 1.5 4.7 2.6 7.4 3.3ZM28.5 20.6a13 13 0 0 1-10 9c1.2-1.9 2-4 2.7-6.2 2.6-.6 5-1.5 7.3-2.8ZM3.5 20.6c2.3 1.3 4.7 2.2 7.3 2.8.6 2.2 1.5 4.3 2.7 6.3a13 13 0 0 1-10-9.1ZM18.5 4.1a13 13 0 0 1 8.2 5.4 15 15 0 0 1-5 3.3C21 9.7 20 6.8 18.5 4ZM16 4c1.9 2.7 3.2 6 3.7 9.4a15 15 0 0 1-7.4 0C12.8 10 14 6.7 16 4ZM13.5 4.1a24.8 24.8 0 0 0-3.2 8.7 15 15 0 0 1-5-3.3A13 13 0 0 1 13.5 4Z"/></svg>