<svg xmlns="http://www.w3.org/2000/svg" viewBox="0 0 460 369"><path fill="#EEF3FB" d="M459.4 113.8c-4.1-43-30.1-84.2-69-103.1C351.3-8.2 300.6-2 270 28.4c-18.4 18.3-29.3 43.7-50 59.2-37 27.8-89.6 15-134 27.5A121.3 121.3 0 0 0 0 224.5v2.7c-.7 66 60 115.8 125 104l179.4-32.4a214.6 214.6 0 0 0 114.2-65.7c28.5-32.5 44.9-76.3 40.8-119.3Z"/><circle cx="222.5" cy="198.5" r="156.5" fill="#99B5DD"/><path fill="#201E52" d="M392.6 203.2c-.3-.8-.4-1.7-.3-2.5 0-.8 0-1.7.3-2.5.3.8.3 1.7.3 2.5 0 .9 0 1.7-.3 2.5ZM392 213.2c-.2-1.7-.1-3.4.4-5 .2 1.7 0 3.4-.4 5ZM390.8 223.1v-2.5c.1-.8.3-1.7.7-2.4a6 6 0 0 1-.1 2.5c0 .8-.2 1.7-.6 2.4ZM389 233c0-.8 0-1.7.3-2.5 0-.9.3-1.7.7-2.4.1.8 0 1.7-.2 2.5 0 .8-.3 1.7-.7 2.4ZM386.7 242.7c.1-1.7.5-3.3 1.3-4.8a12 12 0 0 1-1.3 4.8ZM383.8 252.3c0-.9.2-1.7.6-2.5.1-.8.5-1.6 1-2.3 0 .8-.2 1.7-.6 2.5a6 6 0 0 1-1 2.3ZM380.4 261.6c0-.8.3-1.6.6-2.4a6 6 0 0 1 1.2-2.2c0 .8-.3 1.7-.7 2.4-.2.8-.6 1.6-1.1 2.2ZM376.4 270.8c0-.8.3-1.6.8-2.4.2-.8.7-1.5 1.2-2.1 0 .8-.3 1.6-.8 2.3-.2.8-.7 1.6-1.2 2.2ZM371.8 279.7c.2-.8.5-1.6 1-2.3.6-1.2 1.2-2.2 1.4-2.1-.2.8-.5 1.6-1 2.3-.6 1.2-1.2 2.2-1.4 2.1ZM366.8 288.3c.2-.8.5-1.6 1-2.2.8-1.2 1.4-2.1 1.6-2-.2.8-.6 1.6-1.1 2.2-.7 1.2-1.4 2.1-1.5 2ZM361.2 296.6c.3-.8.7-1.5 1.2-2.2.8-1.1 1.5-2 1.6-1.9-.2.8-.6 1.6-1.2 2.2-.8 1.2-1.5 2-1.6 2ZM355.2 304.6c.3-.8.7-1.5 1.3-2.1.9-1.1 1.6-2 1.7-1.8.2 0-.4 1-1.3 2.1-.8 1.1-1.6 1.9-1.7 1.8ZM348.7 312.2c-.1 0 .5-1 1.4-2 1-1 1.8-1.8 1.9-1.7 0 0-.6 1-1.5 2-.9 1.1-1.7 1.8-1.8 1.7ZM341.8 319.4c-.2 0 .6-1 1.5-2 1-1 1.9-1.7 2-1.6 0 .1-.6 1-1.6 2s-1.8 1.7-2 1.6ZM334.4 326.2c0-.1.7-1 1.7-1.9 1-.9 2-1.6 2-1.4 0 0-.7.9-1.7 1.8-1 1-1.9 1.6-2 1.5ZM326.7 332.6c0-.2.7-1 1.8-1.8.6-.6 1.3-1 2.1-1.4.1.1-.7 1-1.8 1.8-.6.6-1.3 1-2.1 1.4ZM318.6 338.4s.8-.8 2-1.6c.5-.6 1.3-1 2.1-1.3 0 .2-.8 1-1.9 1.7-.6.6-1.4 1-2.2 1.2ZM310.2 343.8s.8-.8 2-1.5c.7-.5 1.5-.9 2.3-1.1 0 .1-.8.8-2 1.5-.7.6-1.5 1-2.3 1.1ZM301.5 348.7l2-1.4a6 6 0 0 1 2.4-1c-.6.6-1.3 1.1-2 1.4-.8.5-1.6.9-2.4 1ZM292.5 353.1c.6-.6 1.4-1 2.2-1.3.7-.4 1.5-.7 2.4-.8-.7.6-1.4 1-2.2 1.3a6 6 0 0 1-2.4.8ZM283.3 357c.6-.6 1.4-1 2.2-1.2.8-.4 1.6-.7 2.4-.7-.6.5-1.4 1-2.2 1.2-.7.3-1.6.6-2.4.6ZM273.9 360.2c.6-.5 1.4-.8 2.2-1a6 6 0 0 1 2.5-.5c-1.5.8-3 1.4-4.8 1.6ZM264.2 363c.8-.5 1.5-.8 2.4-1 .8-.3 1.6-.4 2.5-.4-.7.5-1.5.8-2.4 1-.8.2-1.6.4-2.5.3ZM254.5 365c.7-.3 1.5-.6 2.4-.7.8-.2 1.6-.3 2.5-.2-.8.4-1.6.7-2.4.7-.8.3-1.7.4-2.5.3ZM244.6 366.6l2.4-.6c.8-.2 1.7-.2 2.5-.1-1.6.6-3.3.8-5 .7h.1ZM234.7 367.6c.7-.3 1.6-.5 2.4-.5a6 6 0 0 1 2.5.1c-.8.3-1.6.5-2.4.5a6 6 0 0 1-2.5 0ZM224.7 368a6 6 0 0 1 2.5-.3c.8-.1 1.6 0 2.5.2-.8.3-1.7.4-2.5.3-.9.1-1.7 0-2.5-.2ZM214.7 367.8a6 6 0 0 1 2.5-.1c.8-.1 1.7 0 2.5.3-1.7.3-3.4.2-5-.2ZM204.7 367h2.5c.8 0 1.7.2 2.5.6h-2.5c-.9 0-1.7-.2-2.5-.5ZM194.8 365.7a12 12 0 0 1 5 .8c-1 .1-1.8 0-2.6-.1-.8 0-1.7-.3-2.4-.7ZM185 363.8c.8 0 1.7 0 2.5.3a6 6 0 0 1 2.4.7c-1.7 0-3.4-.3-4.9-1ZM175.3 361.3c1.7 0 3.3.5 4.8 1.3-.8 0-1.7 0-2.5-.4-.8-.1-1.6-.4-2.3-1ZM165.8 358.2c.8 0 1.6.2 2.4.6.8.2 1.6.5 2.3 1-.8 0-1.7-.2-2.4-.5-.9-.2-1.6-.6-2.3-1ZM156.5 354.6c.8 0 1.6.3 2.4.7.8.2 1.5.6 2.2 1.2a12 12 0 0 1-4.6-2ZM147.4 350.4c1.6.4 3.2 1.1 4.5 2.2-.8-.2-1.7-.4-2.4-.9-1.2-.6-2.2-1.2-2.1-1.3ZM138.6 345.7c.8.2 1.6.5 2.3 1 .7.3 1.4.8 2 1.4-.8-.2-1.6-.5-2.3-1-1.2-.6-2.1-1.3-2-1.4ZM130 340.5c.8.2 1.6.6 2.3 1l2 1.6c-.9-.2-1.6-.6-2.3-1.1-1.2-.7-2-1.4-2-1.5ZM121.8 334.8c.8.2 1.6.6 2.2 1.2 1.1.8 2 1.6 1.9 1.7-.8-.3-1.6-.7-2.2-1.3-1.1-.8-2-1.5-1.9-1.6ZM114 328.6c.8.3 1.5.8 2.1 1.3 1 1 1.9 1.7 1.8 1.8-.8-.3-1.5-.7-2.1-1.3-1.1-1-2-1.7-1.8-1.8ZM106.5 322c.7.4 1.4.9 2 1.5 1 1 1.8 1.8 1.7 1.9-.1 0-1-.6-2-1.5-1-1-1.8-1.8-1.7-1.9ZM99.4 314.9c.8.4 1.4 1 2 1.6 1 1 1.6 1.9 1.5 2-.1.1-1-.6-2-1.6-.9-1-1.6-1.9-1.5-2ZM92.8 307.4s.9.7 1.8 1.8c.6.5 1.1 1.2 1.4 2 0 .1-.9-.7-1.8-1.7-1-1-1.5-2-1.4-2ZM86.6 299.6s.9.7 1.7 1.8c.6.6 1 1.4 1.3 2.2-.1 0-.9-.8-1.7-1.9-.9-1-1.5-2-1.3-2.1ZM80.8 291.4c.2 0 .9.8 1.6 2 .6.6 1 1.3 1.2 2.2 0 0-.8-.8-1.6-2-.5-.6-1-1.4-1.2-2.2ZM75.6 283c.1-.2.8.7 1.5 2 .5.6.8 1.4 1 2.2-.1 0-.8-.8-1.5-2-.5-.7-.8-1.5-1-2.3ZM70.8 274.1c.2 0 .8.9 1.4 2.1.5.7.8 1.5 1 2.4-.2 0-.8-1-1.4-2.2a6 6 0 0 1-1-2.3ZM66.6 265c1 1.4 1.7 3 2 4.6 0 0-.7-.9-1.2-2.2-.4-.7-.7-1.5-.8-2.3ZM63 255.8c.5.6.9 1.4 1.1 2.2.4.8.6 1.6.6 2.4-.5-.6-.9-1.4-1-2.2a6 6 0 0 1-.7-2.4ZM59.9 246.3c.5.6.8 1.4 1 2.3.3.7.5 1.6.5 2.4-.5-.7-.9-1.5-1-2.3-.4-.8-.5-1.6-.5-2.4ZM57.3 236.6c.5.7.8 1.5.9 2.3.3.8.4 1.7.3 2.5-.4-.7-.7-1.5-.8-2.3-.3-.8-.4-1.7-.4-2.5ZM55.4 226.8c.4.7.6 1.6.7 2.4.2.8.3 1.7.2 2.5-.4-.7-.7-1.6-.7-2.4-.3-.8-.3-1.7-.2-2.5ZM54 216.9c.4.7.6 1.6.6 2.4v2.5a12 12 0 0 1-.7-5h.1ZM53.2 207c.3.7.4 1.5.4 2.4.2.8.1 1.7 0 2.5-.4-.8-.5-1.6-.5-2.5-.1-.8-.1-1.7.1-2.5ZM53 197c.3.7.3 1.6.3 2.4 0 .9 0 1.7-.3 2.5-.2-.8-.3-1.6-.3-2.5 0-.8 0-1.7.3-2.5ZM53.3 187c.3.7.3 1.6.2 2.4 0 .9-.1 1.7-.4 2.5-.2-.8-.3-1.7-.1-2.5 0-.8 0-1.7.3-2.5ZM54.3 177a6 6 0 0 1 0 2.5c0 .9-.2 1.7-.5 2.5a12 12 0 0 1 .5-5ZM55.8 167a6 6 0 0 1-.1 2.6c-.1.8-.3 1.7-.7 2.4a6 6 0 0 1 .2-2.5c0-.8.2-1.7.6-2.4ZM58 157.3c0 1.7-.5 3.4-1.2 4.9 0-.9 0-1.7.3-2.5.1-.9.4-1.7.8-2.4ZM60.6 147.7c-.1 1.7-.6 3.3-1.4 4.8 0-.9.1-1.7.5-2.5.1-.8.4-1.6 1-2.3ZM63.9 138.2a6 6 0 0 1-.6 2.5c-.2.8-.6 1.6-1.1 2.2 0-.8.2-1.6.6-2.4.2-.8.6-1.6 1-2.3ZM67.7 129c-.1.8-.4 1.7-.8 2.4-.2.8-.6 1.6-1.2 2.2 0-.8.3-1.7.8-2.4.2-.8.6-1.6 1.2-2.2ZM72 120c-.4 1.6-1.2 3.1-2.2 4.5 0-.9.4-1.7.8-2.4.7-1.2 1.3-2.2 1.4-2.1ZM76.9 111.3a6 6 0 0 1-1 2.2c-.7 1.2-1.4 2.2-1.5 2 .2-.8.5-1.6 1-2.3.7-1.1 1.4-2 1.5-2ZM82.3 102.8c-.3.8-.6 1.6-1.2 2.3-.7 1.1-1.4 2-1.6 1.9.3-.8.7-1.6 1.2-2.2.8-1.2 1.5-2 1.6-2ZM88.1 94.7A6 6 0 0 1 87 97c-.9 1-1.6 2-1.8 1.8 0 0 .5-1 1.3-2.1.9-1.2 1.6-2 1.7-1.9ZM94.5 87 93 89c-1 1.2-1.7 2-1.9 1.8 0 0 .6-1 1.5-2 .8-1.1 1.7-2 1.8-1.8ZM101.2 79.6c.1.1-.5 1-1.5 2s-1.8 1.8-1.9 1.7c-.1-.1.6-1 1.5-2 1-1 1.8-1.8 2-1.7ZM108.4 72.7c.1 0-.6 1-1.6 1.9-1 .9-2 1.6-2 1.5-.1-.1.6-1 1.6-1.9 1-1 2-1.6 2-1.5ZM116 66.2s-.7.9-1.8 1.8c-.5.6-1.3 1-2 1.4-.1-.1.6-1 1.7-1.8.6-.6 1.3-1.1 2.1-1.4ZM124 60.1c0 .1-.8.9-2 1.7-.5.6-1.3 1-2 1.3-.2-.1.7-.9 1.8-1.7.6-.6 1.3-1 2.1-1.3ZM132.2 54.5c.1.1-.8.9-2 1.6-.6.5-1.3 1-2.1 1.2-.1-.2.7-.9 1.9-1.6a6 6 0 0 1 2.2-1.2ZM140.8 49.4c.1.2-.8.8-2 1.5-.7.5-1.4.8-2.3 1 .6-.6 1.3-1.1 2-1.5.7-.4 1.5-.8 2.3-1ZM149.7 44.9c-.6.6-1.3 1-2.1 1.3a6 6 0 0 1-2.4.9c.6-.6 1.4-1 2.2-1.4.7-.4 1.5-.7 2.3-.8ZM158.9 40.8c-.7.6-1.4 1-2.2 1.2a6 6 0 0 1-2.4.8c.6-.6 1.4-1 2.2-1.2.7-.4 1.5-.7 2.4-.8ZM168.2 37.3a6 6 0 0 1-2.2 1.1c-.8.4-1.6.6-2.5.6.7-.5 1.5-.9 2.3-1 .7-.4 1.6-.6 2.4-.7ZM177.8 34.4c-.7.5-1.5.8-2.4 1a6 6 0 0 1-2.4.4 12 12 0 0 1 4.8-1.4ZM187.5 32a12 12 0 0 1-4.9 1.2 6 6 0 0 1 2.4-.8c.8-.3 1.6-.4 2.5-.3ZM197.3 30.3a12 12 0 0 1-4.9.8c.8-.4 1.6-.6 2.4-.7.8-.2 1.7-.2 2.5-.1ZM207.3 29c-1.7.6-3.4.8-5 .6.7-.3 1.6-.5 2.4-.5a6 6 0 0 1 2.6 0ZM217.2 28.5a6 6 0 0 1-2.4.3c-.9.2-1.7.1-2.6 0a6 6 0 0 1 2.5-.5c.9 0 1.7 0 2.5.2ZM227.2 28.4c-.8.3-1.6.4-2.5.3-.8 0-1.7 0-2.5-.3 1.7-.3 3.4-.3 5 0ZM237.2 29c-1.7.2-3.4.1-5-.4.8-.1 1.7-.2 2.5 0 .9 0 1.7 0 2.5.4ZM247.2 30.1c-.9.2-1.7.1-2.6 0-.8 0-1.6-.3-2.4-.6a12 12 0 0 1 5 .6ZM257 31.8c-1.7 0-3.4-.3-5-.9 1-.1 1.8 0 2.6.2.8 0 1.7.3 2.4.7ZM266.7 34.1c-1.6 0-3.3-.5-4.8-1.2 1.7 0 3.3.5 4.8 1.2ZM276.3 37a12 12 0 0 1-4.8-1.5c.9 0 1.7.2 2.5.5.8.2 1.6.5 2.3 1ZM285.7 40.4c-.8 0-1.7-.3-2.4-.6-.8-.3-1.6-.6-2.3-1.2.9 0 1.7.3 2.5.7a6 6 0 0 1 2.2 1.1ZM294.9 44.4c-.9-.1-1.7-.4-2.4-.8-.8-.3-1.5-.7-2.2-1.3.9.1 1.7.4 2.4.8 1.3.6 2.3 1.2 2.2 1.3ZM303.8 49c-.8-.2-1.6-.6-2.3-1-1.3-.7-2.2-1.3-2.1-1.4.8.1 1.6.5 2.3 1 .8.2 1.5.7 2.1 1.3ZM312.4 54a6 6 0 0 1-2.2-1.1c-1.2-.7-2.1-1.4-2-1.5.8.2 1.6.5 2.3 1 1.1.7 2 1.4 2 1.5ZM320.8 59.5c-.8-.3-1.6-.7-2.2-1.2-1.2-.8-2-1.5-2-1.7.9.3 1.6.7 2.3 1.2 1.1.8 2 1.6 1.9 1.7ZM328.8 65.5c-.8-.3-1.6-.8-2.2-1.3-1-.9-1.9-1.7-1.8-1.8.8.3 1.5.8 2.1 1.3 1.1.9 2 1.7 1.9 1.8ZM336.4 72c-.1.1-1-.5-2-1.5-1.1-.9-1.9-1.7-1.8-1.8.1-.1 1 .5 2 1.5 1.1.9 1.9 1.6 1.8 1.8ZM343.6 78.8c0 .1-1-.6-2-1.5a6.5 6.5 0 0 1-1.6-2c.1 0 1 .6 2 1.6s1.7 1.8 1.6 2ZM350.4 86.2s-1-.7-1.8-1.7c-1-1-1.6-2-1.5-2 0 0 1 .6 1.8 1.7 1 1 1.6 1.9 1.5 2ZM356.8 93.9c-.1 0-1-.8-1.8-1.8-.6-.6-1-1.3-1.3-2.1 0-.1.9.7 1.7 1.7.6.7 1 1.4 1.4 2.2ZM362.7 102c-.1 0-.9-.8-1.6-2-.6-.6-1-1.3-1.3-2.2.1 0 .9.8 1.7 2 .5.6 1 1.3 1.2 2.1ZM368.1 110.3s-.8-.8-1.5-2c-.5-.7-.9-1.4-1.1-2.3l1.5 2a6 6 0 0 1 1.1 2.3ZM373 119l-1.4-2c-.5-.8-.8-1.6-1-2.4.2 0 .8.9 1.5 2 .4.8.8 1.6 1 2.4ZM377.5 128c-.6-.6-1-1.4-1.3-2.2-.5-.7-.8-1.5-.9-2.3.6.6 1 1.3 1.3 2.1.5.8.8 1.6.9 2.4ZM381.3 137.2c-.5-.7-1-1.4-1.1-2.2a6 6 0 0 1-.7-2.4c.5.6.9 1.4 1.1 2.2.4.7.7 1.5.7 2.4ZM384.6 146.6c-.4-.7-.8-1.5-1-2.3-.3-.7-.5-1.6-.5-2.4.5.7.8 1.4 1 2.3.3.7.5 1.6.5 2.4ZM387.4 156.2c-.8-1.5-1.2-3.1-1.3-4.8.8 1.5 1.2 3.1 1.3 4.8ZM389.6 166c-.7-1.5-1-3.2-1-4.9.4.7.7 1.6.7 2.4.3.8.4 1.7.3 2.5ZM391.2 175.8a6 6 0 0 1-.6-2.4c-.3-.8-.3-1.7-.2-2.5.6 1.6.9 3.3.8 5ZM392.2 185.8a6 6 0 0 1-.5-2.5c-.2-.8-.2-1.7 0-2.5.3.8.5 1.6.5 2.5v2.5ZM392.6 195.8a6 6 0 0 1-.3-2.5c-.1-.8 0-1.7.2-2.5.2.8.4 1.6.3 2.5.1.8 0 1.7-.2 2.5ZM379.1 205.2l.2-5.4v-5.6 5.6c0 1.9 0 3.6-.2 5.3ZM68.4 173l-.5 2.8.5-2.8Z"/><path fill="#201E52" d="M118 314.4ZM69 169.4l-.2.8.2-.8ZM375.8 165.1Z" opacity=".6"/><path fill="#201E52" d="M314 243.7c6.9-4.4 11-16 3.9-19.9-2.7-1.4-6.2-1-8.9-2.6-3.5-2-4.6-6.4-5.4-10.3a41709 41709 0 0 0-6.3-31.2c-1.3-6.2-3.5-13.6-9.6-15.3-3.5-1-7.2.1-10.8.3-12.4.4-28.5-31.8-40.6-13.4-.5-5.6-9.5-4.8-13-.5-3.5 4.4-5 10.6-9.9 13.3-3.7 2-8.6 1.5-11.8 4.2-2.3 2-3 5.1-3.8 8l-3.8 16.8c-1 4.4-2 9.3-.4 13.6 1.6 4.3 7.3 7.3 11 4.7 1.8-1.2 2.8-3.2 4.3-4.7a8.9 8.9 0 0 1 9.5-1.8c2.6 1 4.5 3.4 6.2 5.8 13.3 19.3 15.4 44.2 12.8 67.5-.5 4.2-1.2 8.6-.2 12.8 1.2 4.8 4.5 9.1 5 14.1.3 3.9-1.1 7.8 0 11.5 2 6.8 11.7 8.5 17.7 4.7s9-10.9 11-17.7c2-6.8 3.8-14 8.6-19.3 3-3.3 6.9-5.6 9.1-9.4 3.2-5.3 2.4-12.2 5.4-17.6 4-7.1 13-9.2 20-13.6ZM110.2 306.8a107.2 107.2 0 0 0 11.3 10.7l2.6 2.1c0-.3-.2-.5-.3-.8-2.3-8-1-18.8 7-21.4 1.5-.5 3.1-.7 4.4-1.6 3.7-2.6 2-9.4 5.7-12 2-1.4 5-1 7.3-1.6 4.4-1.3 6.5-6.4 6.8-11 .4-4.5-.5-9.1.7-13.5 1.8-6.7 8-12.8 5.9-19.4-2.4-7.3-12.5-7.7-19-11.7-9.1-5.7-10.4-18.3-15.5-27.8-4.6-8.4-16.8-18.8-27.2-18-7.6.6-10.8 4.7-12.3 10l-1-.3c-2.6-.7-5.8-1.3-7-3.8-1.3-2.9 1-6.5-.4-9.4-.8-1.4-2.3-2.3-3.5-3.4-1.2-1.2-2-3-1-4.4.8-1 2.6-1 3.6-2a2.5 2.5 0 0 0 .4-3.1c-2.3-3.7-6.4 2.6-8.2 4l-1.4 1-.2.8-.4 2.8-.5 2.8-.3 2.2c0 .8-.2 1.6-.3 2.3v1a156.1 156.1 0 0 0 42.8 125.5M84.2 132.1c3.2-2 8.3-1.6 10 1.8 1.3 2.4.5 5.4-.3 8l-3.3 10.6c-.4 1-.5 2.2-.3 3.3.8 2.5 4.6 2.6 6.3.7 1.8-1.8 2-4.7 2-7.2 0-2.6-.1-5.3 1.2-7.5 3.3-5.5 11.9-3.4 17.5-6.5 3.5-1.9 5.4-5.6 7.8-8.8 2.3-3.2 6-6.2 9.9-5.4 1.3.2 2.5.9 3.8 1 4 .5 7-4.9 4.6-8-.5-.6-1-1.2-1.4-2a3.2 3.2 0 0 1 1.8-3.6c1.3-.6 2.8-.9 4.3-.8l10.1-.1c3.8 0 8.7-1.3 8.7-5 0-3.2-4-5.3-4.2-8.5l-.1-2.4c-.7-2.1-3.8-1.8-6-1a4.8 4.8 0 0 0-6.9-3.3c-2.2 1.3-2.8 4.1-3.9 6.4-2.4 5.7-7.8 9.5-12.8 13-1.7 1.1-3.6 2.3-5.7 2.2-2-.2-3.8-2.7-2.6-4.4.8-1.1 2.6-1.6 2.7-3 0-1.7-3-2-3.4-3.8 1.9-4.7 7.7-5.9 12.4-7.8a26.9 26.9 0 0 0 13.8-13.6v-1.5c-.5-1.3-2-1.7-3.5-2-3.3-.5-7.4-.7-9 2.2-1 1.6-.7 3.5-1.4 5.2-1.9 5-9 4.5-13.6 6.9-1.9 1-3.4 2.4-5.4 3-2.1.7-4.4.3-6.7.1h-1.1a136 136 0 0 0-9.3 10.6 154.4 154.4 0 0 0-26.5 49.8c2-2.9 3.2-6.7 4.2-9.3 1.3-3.5 3.1-7.2 6.3-9.3Z" opacity=".3"/><path fill="#201E52" d="M378 218.5a127.2 127.2 0 0 0 1.3-18.7v-5.6a152.6 152.6 0 0 0-2.3-22.9l-1.2-6.2c-.6-1.6-1.2-3.1-2-4.7-6.6-14.9-17.5-27.4-25-41.8-2.6-4.7-4.4-8.5-9.8-10.1-7.9-2.5-12.7 1.5-17.3-7-1.2-2.2-3.7-4.5-6.1-3.6l1 5.2v1c-.2 1.2-2 1.3-2.9.5-.7-1-1.3-2-1.7-3.1a8 8 0 0 0-11.5-2.6 4.5 4.5 0 0 0-2-4 5.4 5.4 0 0 1-7.4 3.3c-.2-1.6 2.5-1.5 3.6-2.6s.3-2.9-.7-4c-2.6-3-6.1-5-10-5.8-2.5-.4-5.2-.3-7.2-1.9-1.1-.9-1.8-2.2-3-3.1-2.5-2-1.5 2.1-4.5 3.3-4 1.5-6.2 2-8.2 5.9a21 21 0 0 0-1 2.4 5 5 0 0 0 2 5.9l.3.1c1.5.6 2 2.5 1.8 4.1 0 1.6-.5 3.2 0 4.7.7 1.5 2.7 2.5 3.8 1.3 2.3-1.6 2.5-4.9 2.4-7.7-.1-2.8-.2-5.9 1.7-7.9 2-2 6.5-.6 5.8 2.1-.4 1.6-2.4 2.5-2.6 4.1-.2 1.7 1.7 2.9 3.4 3 1.7.2 3.5-.1 5 .5 1.6.7 2.6 3 1.2 4-2.3 2-7-2.7-8.5 0-.4.7-.3 1.6-.4 2.4-.6 2.3-3.7 2.8-6.2 2.7-2.4 0-5-.2-7-1.5-2-1.4-3.1-4.4-1.6-6.3-1-1-3-.5-4 .8a8 8 0 0 0-.9 4.4c-2.4-.9-5 1-6.8 2.9-1.7 1.9-3.5 4.2-6.1 4.6-2.6.4-5.9-1.1-7.5 1-2.1 2.6 2.2 7 0 9.7-1.1 1.5-3.5 1.1-5.4 1.4-5.1.7-7.9 7.6-5.1 12 2.8 4.4 9.5 5 13.6 2 2.9-2.2 4.4-5.6 6.6-8.4 2.3-2.8 6-5 9.3-3.6 1.2.7 2.3 1.6 3.2 2.7l4.3 4.9c1 1 2 2.3 1.6 3.7-.3 1-1.2 1.8-1.8 2.8-1.4 2.8 2.5 6.2 5.4 5 3-1.3 3.8-5.4 2.4-8.2-2-3.9-7.6-6.5-6.8-10.8 3.3-2 7.6 1.2 8.8 4.8 1.2 3.7.7 7.7 1.6 11.4 1 3.7 4.5 7.5 8.2 6.2l-1.3-9.4c2.4-1.3 4.1 3.7 6.8 3.3 1.7-.2 2.2-2.5 1.7-4-.4-1.7-1.5-3.2-1.5-4.8 0-3 3.6-5.3 6.6-4.4 3 1 4.7 4.2 4.8 7.2 0 1.2 0 2.4.3 3.6.8 2.5 3.6 3.7 5.9 5 2.2 1.4 4.4 4.1 3 6.4-.6 1-1.8 1.8-1.6 3 .2 1.2 1.6 1.6 1.4 2.7 0 .6-.9 1-1.5 1.2-1.8.4-3.5.4-5.2 1-1.7.4-3.3 1.7-3.5 3.5-.1 2.4 2.6 4 3.7 6.3 1 2.2.5 4.6 1 7 .5 2.1 1.9 4 3 5.9 3.2 6.1 3.1 13.4 4.2 20.2.4 3.1 1.5 6.7 4.5 7.7 1.7.3 3.4.3 5-.3 4.7-1 9.5-2.3 13-5.4 3.6-3.1 5.5-8.8 2.9-12.8-.3-.5-.8-1-1.4-1.1-.8 0-1.7 0-2.4.4-2.4.8-5-.5-6.6-2.4-1.7-2-2.4-4.3-3.2-6.7l-2.6-7.9c1.6-1 3.9-.1 5.2 1.3 1.3 1.4 2 3.3 3 5 3 5 8.6 8 14.4 9.4 1.4.3 2.9.8 4.2 1.6 4 2.6 4.3 9.2 8.7 11.2 1.3.6 2.7.7 3.8 1.4 1.7 1.1 2.3 3.3 2.6 5.4.4 3.7.3 7.6 1.3 11.2 1 3.7 3.6 7.2 7.3 7.8a9 9 0 0 0 6.6-1.9 168 168 0 0 0 1.8-10.1l.2-2.2ZM306.3 273.8c-2.4.1-3 1.4-4.5 3-2 2-4.7 3.8-6.5 5.8-3 3.3-1.6 9.5-5.4 12.1l-2.4 1.5a4 4 0 0 0 0 5.5 5.4 5.4 0 0 0 5.8 1 8.6 8.6 0 0 0 4.2-4.4c.7-1.3 1.1-2.9 2.4-3.7 2.1-1.4 4.9.3 7.5.3 10.8.1 9.3-21.6-1.1-21.1Z" opacity=".3"/><path fill="#D6C29A" d="M90.9 47.2a13.4 13.4 0 0 0-12.2 2.2s-8.3 6.3-5 15.6a15 15 0 0 0 6.7 8c1.2.7 2.4 1.2 3.7 1.6 4.5 1.5 17.5 4.8 17.5 4.8s-.4-16.3-1.2-21c-1-4.7-4.3-9.7-9.5-11.2Zm1.5 20.4A8.8 8.8 0 0 1 80 65.9a8.9 8.9 0 1 1 12.4 1.7ZM423.4 171.4a13.4 13.4 0 0 0 3.6-11.9s-1.8-10.2-11.5-11.6c-3.5-.5-7.2.3-10.2 2.3-1.1.7-2.2 1.5-3.2 2.5-3.4 3.3-12.3 13.3-12.3 13.3s14.7 7.2 19.2 8.6c4.6 1.4 10.6.7 14.4-3.2Zm-18.9-8a8.9 8.9 0 1 1 1.3 3.2c-.7-1-1-2-1.3-3.2Z"/><path fill="#88C69C" d="M60.6 322.7a13.4 13.4 0 0 0 4.2 11.7s7.6 7 16.2 2.4a15 15 0 0 0 6.8-8c.4-1.3.8-2.6 1-4 .6-4.6 1.8-18 1.8-18s-16 3.1-20.5 4.7a14.6 14.6 0 0 0-9.5 11.2Zm19.9-4.9a8.8 8.8 0 1 1-12.1 13 8.8 8.8 0 0 1 12-13ZM368.5 72.3a9.5 9.5 0 0 0-3-8.3s-5.4-5-11.5-1.7c-2.2 1.3-4 3.3-4.8 5.7-.3 1-.6 1.8-.7 2.8-.5 3.3-1.3 12.8-1.3 12.8s11.4-2.2 14.5-3.3c3-1.1 6.3-4.1 6.8-8Zm-14.1 3.5a6.2 6.2 0 0 1-.3-8.9 6.3 6.3 0 1 1 .3 8.9Z"/></svg>