<svg xmlns="http://www.w3.org/2000/svg" id="Layer_2" data-name="Layer 2" viewBox="0 0 1608.96 590.62" fill="#201e52"><defs/><g id="Layer_1-2" data-name="Layer 1"><path d="M413.45 590.62c40.12 0 72.83-32.72 72.83-72.84s-32.72-72.83-72.83-72.83-72.84 32.72-72.84 72.83 32.72 72.84 72.84 72.84ZM256.05 582.89c35.86 0 65.11-29.25 65.11-65.11s-29.25-65.11-65.11-65.11-65.11 29.25-65.11 65.11 29.25 65.11 65.11 65.11Z" class="cls-2"/><circle cx="130.51" cy="474.52" r="56.06" class="cls-1" transform="rotate(-45 130.513 474.52)"/><path d="M59.04 431.27c24.65 0 44.75-20.1 44.75-44.75s-20.1-44.75-44.75-44.75-44.75 20.1-44.75 44.75 20.1 44.75 44.75 44.75ZM36.82 316.09c20.28 0 36.82-16.54 36.82-36.82s-16.54-36.82-36.82-36.82S0 258.99 0 279.27s16.54 36.82 36.82 36.82Z" class="cls-2"/><circle cx="54.77" cy="188.02" r="28.33" class="cls-1"/><circle cx="92.14" cy="119.5" r="22.72" class="cls-1"/><path d="M139.55 90.33c10.23 0 18.57-8.34 18.57-18.57s-8.34-18.57-18.57-18.57-18.57 8.34-18.57 18.57 8.34 18.57 18.57 18.57Z" class="cls-2"/><circle cx="182.41" cy="38.69" r="12.85" class="cls-1"/><circle cx="213.66" cy="16.32" r="8.9" class="cls-1"/><circle cx="243.37" cy="6.16" r="6.16" class="cls-1"/><path d="M312.49 227.99h-7c-.84-5.87-2.67-11.23-5.48-16.08-2.81-4.85-5.58-7.77-8.31-8.76-2.73-.99-8.49-1.48-17.29-1.48h-19.85l-11.76 50.74h12.66c7.12 0 12.86-1.8 17.2-5.39s8.13-9.28 11.36-17.06h6.83l-12.39 53.52h-6.74v-2.78c0-7-1.21-12.18-3.64-15.54-2.42-3.35-7.17-5.03-14.23-5.03h-12.66l-9.61 41.04c-.48 2.04-.72 3.68-.72 4.94 0 2.51.99 4.42 2.96 5.7 1.97 1.29 6.32 2.26 13.02 2.92l-1.44 6.65h-68.97l1.44-6.65c1.74 0 4.83-.31 9.29-.94 4.46-.63 7.42-1.85 8.89-3.68 1.47-1.83 2.53-3.91 3.19-6.24l20.39-89.18c.6-2.63.9-4.28.9-4.94 0-4.61-5.39-7.69-16.17-9.25l1.44-6.56h114.59l-7.9 34.04ZM366.43 314.57l-1.66 6.83h-53.42l1.66-6.83c8.64 0 13.54-2.69 14.7-8.08l12.33-63.22c.42-2.16.63-3.59.63-4.31 0-3.05-3.85-5.18-11.54-6.38l1.5-6.83h53.27c22.45 0 33.67 6.77 33.67 20.3s-8.59 23.2-25.76 28.11c3.42 7.18 7.22 14.64 11.38 22.36 4.16 7.72 6.99 12.44 8.5 14.14 1.5 1.71 3.08 2.69 4.74 2.96s3.6.58 5.81.94l-1.74 6.83h-38.88c-5.22-14.85-10.99-29.25-17.31-43.2h-3.71l-5.22 26.13c-.42 2.1-.63 3.38-.63 3.86 0 1.8.67 3.19 2.02 4.18 1.34.99 4.57 1.72 9.68 2.2Zm2.69-81.1-7.11 37h5.37c6.27 0 11.24-2.19 14.9-6.56 3.66-4.37 5.49-10.15 5.49-17.33 0-4.61-1.12-7.95-3.36-10.01-2.24-2.07-6.04-3.1-11.42-3.1h-3.87ZM526.87 250.17h-6.01c-.63-3.71-2-7.08-4.11-10.1-2.11-3.02-4.2-4.88-6.28-5.57-2.08-.69-6.05-1.03-11.89-1.03h-11.85l-6.8 34.58h8.14c5.53 0 9.67-1.2 12.41-3.59 2.74-2.39 4.9-6.47 6.48-12.21h5.85l-7.9 39.87h-6.01v-2.34c0-4.55-.63-8.02-1.9-10.42-1.27-2.39-4.79-3.59-10.59-3.59h-7.9l-4.9 23.71c-.74 3.59-1.11 6.35-1.11 8.26 0 2.51.94 4.16 2.81 4.94 1.87.78 4.99 1.17 9.37 1.17 6.37 0 11.25-.46 14.62-1.39 3.37-.93 6.9-3.97 10.59-9.12 3.69-5.15 6.22-9.07 7.59-11.77h5.69l-6.16 29.82h-88.2l1.5-6.83c2.48 0 5.37-.4 8.69-1.21 3.32-.81 5.37-3.1 6.17-6.87l12.33-63.22c.32-1.62.47-2.84.47-3.68 0-3.47-3.79-5.81-11.38-7l1.34-6.83h83.85l-4.9 24.43ZM548.07 316.81l-5.69 4.58h-6.01l6.8-34.4h6.16c1.47 8.74 4.61 15.64 9.4 20.7 4.79 5.06 10.56 7.59 17.31 7.59 5.43 0 9.8-1.23 13.12-3.68 3.32-2.45 4.98-5.63 4.98-9.52 0-3.53-1.2-6.42-3.6-8.67-2.4-2.25-8.13-5.22-17.19-8.94-9.43-3.77-15.44-7.98-18.02-12.62-2.58-4.64-3.87-9.47-3.87-14.5 0-9.76 3.65-17.87 10.95-24.34 7.3-6.47 16.48-9.7 27.54-9.7 9.27 0 17.57 2.22 24.89 6.65l4.74-4.22h6.32l-6.64 32.6h-6.16c-2.79-17.66-10.25-26.49-22.37-26.49-4.79 0-8.65 1.24-11.58 3.73-2.92 2.48-4.39 5.52-4.39 9.12 0 5.63 4.14 9.97 12.41 13.02 9.48 3.77 16 6.75 19.56 8.94 3.56 2.19 6.36 5.13 8.42 8.85 2.05 3.71 3.08 7.78 3.08 12.21 0 10.3-3.96 18.92-11.89 25.86-7.93 6.95-18.03 10.42-30.31 10.42-10.86 0-20.18-2.4-27.98-7.18ZM738.94 303.52c-.32 1.56-.47 3.11-.47 4.67 0 1.86.66 3.26 1.98 4.22 1.32.96 4.43 1.68 9.33 2.16l-1.27 6.83h-53.42l1.26-6.83c6.43-.3 10.39-1.2 11.89-2.69 1.5-1.5 2.46-3.23 2.88-5.21l6.16-30.89h-36.12l-5.85 27.75c-.32 1.5-.47 3.05-.47 4.67 0 1.74.64 3.11 1.94 4.13 1.29 1.02 4.41 1.77 9.36 2.25l-1.26 6.83h-53.27l1.34-6.83c2.47 0 5.37-.4 8.69-1.21 3.32-.81 5.37-3.1 6.16-6.87l12.64-63.22c.32-1.56.47-2.78.47-3.68 0-3.47-3.77-5.81-11.3-7l1.42-6.83h53.11l-1.34 6.83c-6.38.6-10.3 1.63-11.78 3.1-1.47 1.47-2.45 3.31-2.92 5.52l-5.22 26.13h35.96l5.06-24.07c.32-1.5.47-2.72.47-3.68 0-3.35-3.74-5.69-11.22-7l1.34-6.83h53.27l-1.34 6.83c-6.59.6-10.62 1.65-12.09 3.14-1.48 1.5-2.4 3.32-2.77 5.48l-12.64 62.33ZM1033.65 200.51c-4.91.66-9.13 2.05-12.66 4.18-3.53 2.13-6.11 4.37-7.72 6.74-1.62 2.37-9.73 16.12-24.34 41.27l-40.59 70.14h-18.59l-11.58-94.12-51.64 94.12h-18.05l-9.79-89.99c-1.38-12.87-2.32-20.09-2.83-21.64-.51-1.56-1.5-3.11-2.96-4.67a18.79 18.79 0 0 0-5.07-3.82c-1.92-.99-4.73-1.72-8.44-2.2l1.71-6.56h66.55l-1.62 6.56c-8.08.9-13.05 1.9-14.91 3.01-1.86 1.11-2.78 2.62-2.78 4.54 0 2.04 2.57 28.29 7.72 78.76l50.2-92.86h19.13l11.58 95.82c28.44-50.53 42.66-77.95 42.66-82.26 0-3.65-6.17-5.99-18.5-7l1.62-6.56h52.63l-1.71 6.56ZM1117.36 321.39h-52.08l1.58-6.83c8.85-.54 13.28-2 13.28-4.4 0-1.02-.16-2.36-.47-4.04l-2.92-15.81h-30.27c-1.21 1.92-2.24 3.71-3.08 5.39-.84 1.68-1.77 3.44-2.77 5.3-2.05 4.31-3.08 7.12-3.08 8.44 0 2.81 4.06 4.52 12.17 5.12l-1.42 6.83h-39.2l1.58-6.83c6.64-.6 11.6-2.92 14.9-6.96 3.29-4.04 20.03-31.75 50.22-83.12h15.33c2.84 16.23 6.12 33.75 9.84 52.58 3.71 18.83 5.91 29.13 6.6 30.89a9.37 9.37 0 0 0 3.32 4.31c1.53 1.11 4.24 1.87 8.14 2.29l-1.66 6.83Zm-47.89-71.94-18.81 32.78h24.5l-5.69-32.78ZM1241.94 232.57a33 33 0 0 0-8.54 2.96c-2.69 1.38-6.61 4.86-11.78 10.46-5.16 5.6-10.93 12.21-17.31 19.85-6.38 7.63-10.29 12.71-11.74 15.22-1.45 2.51-2.81 6.59-4.07 12.21l-2.21 10.6c-.37 1.74-.55 3.02-.55 3.86 0 2.04.78 3.53 2.33 4.49 1.55.96 4.78 1.74 9.68 2.33l-1.42 6.83h-54.93l1.66-6.83 5.14-.54c3.48-.3 5.94-1.05 7.39-2.25 1.45-1.2 2.44-3.14 2.96-5.84l3.24-15.27c.68-3.23 1.03-5.21 1.03-5.93 0-.9-.21-2.01-.63-3.32-.42-1.26-1.03-3.26-1.82-6.02-2.48-7.78-5.47-15.88-8.97-24.29-3.5-8.41-6.15-13.5-7.94-15.27-1.79-1.77-4.9-2.86-9.33-3.28l1.5-6.83h54.69l-1.82 6.83c-1.11.12-2.37.21-3.79.27-5.85.42-8.77 1.62-8.77 3.59 0 1.8 4.08 14.19 12.25 37.18l18.41-22.45c6.53-7.78 9.8-12.51 9.8-14.19 0-2.39-3.48-3.86-10.43-4.4l1.66-6.83h35.8l-1.5 6.83ZM1241.8 316.81l-5.69 4.58h-6.01l6.8-34.4h6.17c1.47 8.74 4.61 15.64 9.4 20.7 4.79 5.06 10.56 7.59 17.31 7.59 5.43 0 9.8-1.23 13.12-3.68 3.32-2.45 4.98-5.63 4.98-9.52 0-3.53-1.2-6.42-3.6-8.67-2.4-2.25-8.13-5.22-17.19-8.94-9.43-3.77-15.44-7.98-18.02-12.62-2.58-4.64-3.87-9.47-3.87-14.5 0-9.76 3.65-17.87 10.95-24.34 7.3-6.47 16.48-9.7 27.54-9.7 9.27 0 17.57 2.22 24.89 6.65l4.74-4.22h6.32l-6.64 32.6h-6.16c-2.79-17.66-10.25-26.49-22.37-26.49-4.79 0-8.65 1.24-11.58 3.73-2.92 2.48-4.39 5.52-4.39 9.12 0 5.63 4.14 9.97 12.41 13.02 9.48 3.77 16 6.75 19.56 8.94 3.56 2.19 6.36 5.13 8.42 8.85 2.05 3.71 3.08 7.78 3.08 12.21 0 10.3-3.96 18.92-11.89 25.86-7.93 6.95-18.03 10.42-30.31 10.42-10.85 0-20.18-2.4-27.98-7.18ZM520.7 552.03l13.23-63.2h12.98l-10.99 52.63h32.16l-2.2 10.56H520.7ZM583.37 533.02c0-8.48 2.39-15.24 7.18-20.28 4.79-5.04 11.07-7.57 18.86-7.57 6.75 0 12.03 1.86 15.82 5.58s5.69 8.73 5.69 15.02c0 7.42-2.37 13.82-7.11 19.23-4.74 5.4-11.09 8.1-19.05 8.1-4.31 0-8.13-.86-11.47-2.59-3.33-1.72-5.82-4.17-7.46-7.33-1.64-3.16-2.46-6.55-2.46-10.17Zm35.26-8.84c0-2.93-.86-5.28-2.56-7.05-1.71-1.77-3.92-2.65-6.62-2.65s-5.04.83-7.11 2.48c-2.07 1.65-3.68 4.05-4.83 7.2-1.15 3.15-1.72 6.04-1.72 8.69 0 3.28.89 5.88 2.67 7.8 1.78 1.93 4.02 2.89 6.72 2.89 3.39 0 6.24-1.45 8.54-4.35 3.28-4.11 4.91-9.11 4.91-15ZM642.19 554.44l13.06 1.9c0 1.32.21 2.32.65 3 .43.67 1.13 1.25 2.09 1.72s2.28.71 3.95.71c2.61 0 4.71-.52 6.29-1.55 1.18-.8 2.14-2.1 2.89-3.88.46-1.12 1.05-3.56 1.77-7.33l.43-2.16c-4.28 3.56-8.71 5.35-13.28 5.35s-8.16-1.58-11.04-4.74-4.31-7.79-4.31-13.88c0-5.37.98-10.3 2.93-14.79 1.96-4.48 4.7-7.87 8.23-10.17 3.53-2.3 7.14-3.45 10.82-3.45 3.04 0 5.83.81 8.36 2.41 2.53 1.61 4.5 3.87 5.91 6.77l1.72-8.1h11.6l-7.93 38.15c-1.29 6.12-2.39 10.49-3.28 13.1-.89 2.62-1.91 4.7-3.06 6.25s-2.6 2.85-4.35 3.9c-1.75 1.05-3.82 1.8-6.21 2.26-2.38.46-4.97.69-7.76.69-6.47 0-11.35-1.11-14.66-3.32s-4.96-5.89-4.96-11.04c0-.55.04-1.15.13-1.81Zm14.57-22.11c0 3.48.78 6.13 2.35 7.95 1.57 1.83 3.53 2.74 5.88 2.74 2.16 0 4.25-.82 6.27-2.46 2.03-1.64 3.58-3.97 4.66-6.98s1.62-5.93 1.62-8.75c0-3.25-.88-5.86-2.63-7.85-1.75-1.98-3.78-2.97-6.08-2.97s-4.25.88-6.1 2.63c-1.85 1.75-3.38 4.46-4.59 8.1-.92 2.82-1.38 5.35-1.38 7.59ZM713.7 506.25h12.37l-9.57 45.78h-12.37l9.57-45.78Zm3.62-17.42h12.37l-2.33 11.21h-12.37l2.33-11.21ZM734.42 539.22l11.98-1.9c1.06 2.53 2.38 4.32 3.97 5.37 1.58 1.05 3.74 1.57 6.47 1.57s5.07-.63 6.77-1.9c1.18-.86 1.77-1.91 1.77-3.15 0-.83-.3-1.58-.9-2.24-.63-.63-2.34-1.41-5.13-2.33-7.47-2.47-12.1-4.43-13.88-5.86-2.79-2.24-4.18-5.17-4.18-8.79s1.35-6.74 4.05-9.35c3.76-3.65 9.35-5.48 16.77-5.48 5.89 0 10.35 1.08 13.36 3.23s4.93 5.07 5.73 8.75l-11.42 1.98c-.6-1.67-1.58-2.92-2.93-3.75-1.84-1.12-4.05-1.68-6.64-1.68s-4.45.43-5.58 1.29c-1.14.86-1.7 1.85-1.7 2.97s.57 2.1 1.72 2.84c.72.46 3.03 1.26 6.94 2.41 6.04 1.75 10.07 3.48 12.11 5.17 2.87 2.39 4.31 5.26 4.31 8.62 0 4.34-1.83 8.1-5.47 11.29-3.65 3.19-8.79 4.79-15.43 4.79s-11.72-1.21-15.33-3.64c-3.61-2.43-6.06-5.84-7.35-10.24ZM795.58 515.43l1.9-9.18h6.04l1.51-7.33 14.18-8.54-3.32 15.86h7.54l-1.9 9.18h-7.59l-4.01 19.18c-.72 3.48-1.08 5.46-1.08 5.95 0 .95.3 1.69.91 2.22.6.53 1.7.8 3.28.8.55 0 1.91-.1 4.1-.3l-1.94 9.18c-2.13.43-4.31.65-6.55.65-4.37 0-7.54-.84-9.53-2.52-1.98-1.68-2.97-4.02-2.97-7 0-1.41.53-4.66 1.6-9.74l3.84-18.41h-5.99ZM838.8 506.25h12.37l-9.57 45.78h-12.37l9.57-45.78Zm3.62-17.42h12.37l-2.33 11.21h-12.37l2.33-11.21ZM892.15 534.78l12.03 1.94c-1.98 5.34-4.92 9.41-8.79 12.2-3.88 2.79-8.38 4.18-13.49 4.18-5.83 0-10.46-1.74-13.88-5.22-3.42-3.48-5.13-8.26-5.13-14.35 0-4.97 1.04-9.67 3.1-14.1s5.19-7.91 9.35-10.45c4.17-2.54 8.74-3.82 13.71-3.82 5.4 0 9.71 1.41 12.93 4.22 3.22 2.82 5.03 6.52 5.43 11.12l-11.77 1.25c-.29-2.56-1.07-4.44-2.35-5.65s-2.95-1.81-5.02-1.81c-2.39 0-4.61.89-6.68 2.67-2.07 1.78-3.66 4.45-4.76 8-1.11 3.55-1.66 6.88-1.66 9.98 0 2.7.66 4.78 1.98 6.25 1.32 1.47 2.97 2.2 4.96 2.2s3.89-.72 5.73-2.16c1.84-1.44 3.28-3.59 4.31-6.47ZM915.98 539.22l11.98-1.9c1.06 2.53 2.38 4.32 3.97 5.37 1.58 1.05 3.74 1.57 6.47 1.57s5.07-.63 6.77-1.9c1.18-.86 1.77-1.91 1.77-3.15 0-.83-.3-1.58-.91-2.24-.63-.63-2.34-1.41-5.13-2.33-7.47-2.47-12.1-4.43-13.88-5.86-2.79-2.24-4.18-5.17-4.18-8.79s1.35-6.74 4.05-9.35c3.76-3.65 9.35-5.48 16.77-5.48 5.89 0 10.35 1.08 13.36 3.23s4.93 5.07 5.73 8.75l-11.42 1.98c-.6-1.67-1.58-2.92-2.93-3.75-1.84-1.12-4.05-1.68-6.64-1.68s-4.45.43-5.58 1.29c-1.14.86-1.7 1.85-1.7 2.97s.58 2.1 1.72 2.84c.72.46 3.03 1.26 6.94 2.41 6.04 1.75 10.07 3.48 12.11 5.17 2.87 2.39 4.31 5.26 4.31 8.62 0 4.34-1.83 8.1-5.47 11.29-3.65 3.19-8.79 4.79-15.43 4.79s-11.72-1.21-15.32-3.64c-3.61-2.43-6.06-5.84-7.35-10.24ZM1041.08 524.52l8.92 5.35c-.83 1.61-1.92 3.36-3.25 5.24-1.34 1.88-2.58 3.36-3.73 4.42 1.64 1.75 3.74 3.71 6.29 5.86l-7.8 8.1c-.98-.52-2.22-1.39-3.73-2.63s-2.78-2.4-3.81-3.49c-2.07 1.64-4.67 3-7.8 4.09-3.13 1.09-6.51 1.64-10.13 1.64-6.55 0-11.7-1.73-15.43-5.2-3.74-3.46-5.6-7.71-5.6-12.74 0-3.19.74-6.16 2.22-8.9 1.48-2.74 3.4-5.09 5.75-7.05 1.7-1.41 4.46-3.13 8.28-5.17-1.87-4.05-2.8-7.59-2.8-10.6 0-4.43 1.62-8.15 4.85-11.17 3.23-3.02 7.49-4.53 12.78-4.53 4.54 0 8.14 1.2 10.8 3.6s3.99 5.21 3.99 8.43c0 2.73-1.14 5.68-3.43 8.86-2.28 3.18-6.04 6.09-11.27 8.73 1.64 2.76 3.68 5.92 6.12 9.48 1.47 2.18 2.64 3.75 3.54 4.7 1.47-1.46 3.22-3.81 5.26-7.03Zm-25.35-1.77c-5.69 2.85-8.54 6.6-8.54 11.25 0 2.64.85 4.81 2.54 6.51 1.7 1.7 3.95 2.54 6.77 2.54 3.42 0 6.94-1.19 10.56-3.58-4.34-5.29-8.12-10.86-11.34-16.73Zm5.95-13.84c3.39-1.72 5.78-3.46 7.16-5.22.98-1.26 1.47-2.54 1.47-3.84 0-1.18-.4-2.15-1.19-2.91-.79-.76-1.88-1.14-3.25-1.14-1.72 0-3.16.6-4.31 1.79-1.15 1.19-1.72 2.75-1.72 4.68s.62 4.05 1.85 6.64ZM1139.67 552.03h-13.15l-1.42-46.21-23.02 46.21h-13.41l-2.37-63.2h12.72l.56 44.23 21.68-44.23h14.1l1.47 43.75 20.82-43.75h12.59l-30.56 63.2ZM1186.04 519.22l-12.07-1.04c1.38-4.08 3.79-7.27 7.22-9.57 3.43-2.3 7.98-3.45 13.64-3.45s10.25 1.19 13.06 3.56 4.22 5.27 4.22 8.69c0 1.38-.12 2.84-.37 4.4s-1.1 5.63-2.56 12.24c-1.21 5.46-1.81 9.28-1.81 11.47 0 1.95.34 4.12 1.03 6.51h-12.03c-.49-1.67-.79-3.39-.91-5.17-1.81 2.01-3.89 3.56-6.25 4.63-2.36 1.08-4.73 1.62-7.11 1.62-3.79 0-6.93-1.24-9.4-3.73-2.47-2.49-3.71-5.68-3.71-9.59 0-4.37 1.36-7.86 4.07-10.48 2.71-2.61 7.56-4.2 14.55-4.74 5.89-.49 9.83-1.08 11.81-1.77.52-1.72.78-3.1.78-4.14 0-1.32-.53-2.43-1.59-3.32-1.06-.89-2.64-1.34-4.74-1.34-2.21 0-3.96.45-5.24 1.36-1.28.91-2.15 2.19-2.61 3.86Zm11.77 11.47c-.75.2-1.74.39-2.97.56-6.21.75-10.26 1.84-12.16 3.28-1.35 1.04-2.03 2.43-2.03 4.18 0 1.44.52 2.65 1.55 3.64 1.03.99 2.4 1.49 4.09 1.49 1.87 0 3.63-.45 5.28-1.36s2.89-2.07 3.71-3.49c.82-1.42 1.54-3.64 2.18-6.66l.34-1.64ZM1233.92 506.25h11.55l-1.85 8.88c4.31-6.64 8.98-9.96 14.01-9.96 1.78 0 3.69.45 5.73 1.34l-4.74 10.13c-1.12-.4-2.31-.6-3.58-.6-2.13 0-4.29.81-6.49 2.41-2.2 1.61-3.92 3.76-5.15 6.45s-2.46 6.95-3.66 12.78l-3.02 14.35h-12.37l9.57-45.78ZM1311.32 532.97h-31.04c-.03.49-.04.86-.04 1.12 0 3.05.87 5.5 2.61 7.37 1.74 1.87 3.86 2.8 6.36 2.8 4.11 0 7.31-2.13 9.61-6.38l11.08 1.85c-2.16 4.46-5.04 7.8-8.64 10.02-3.61 2.23-7.65 3.34-12.13 3.34-6.15 0-11.15-1.95-15-5.84-3.85-3.89-5.78-9.04-5.78-15.45s1.74-11.84 5.22-16.73c4.74-6.61 11.51-9.92 20.3-9.92 5.6 0 10.06 1.73 13.36 5.2s4.96 8.31 4.96 14.55c0 2.99-.29 5.68-.86 8.06Zm-10.43-7.54c.03-.54.04-.96.04-1.25 0-3.39-.76-5.93-2.28-7.63-1.52-1.7-3.56-2.54-6.12-2.54s-4.85.96-6.88 2.89c-2.03 1.93-3.4 4.77-4.12 8.54h19.36ZM1335.75 552.03h-12.37l13.23-63.2h12.37l-4.74 22.5c2.79-2.18 5.39-3.76 7.8-4.72s5-1.44 7.76-1.44c3.71 0 6.64 1.06 8.79 3.19 2.16 2.13 3.23 4.91 3.23 8.36 0 1.84-.4 4.68-1.21 8.54l-5.6 26.77h-12.37l5.73-27.29c.6-2.96.91-4.86.91-5.69 0-1.52-.47-2.74-1.42-3.66-.95-.92-2.24-1.38-3.88-1.38-2.07 0-4.05.72-5.95 2.16-2.47 1.9-4.35 4.22-5.65 6.98-.72 1.52-1.67 5.1-2.84 10.73l-3.79 18.15ZM1386.3 533.02c0-8.48 2.39-15.24 7.18-20.28 4.79-5.04 11.07-7.57 18.86-7.57 6.75 0 12.03 1.86 15.82 5.58 3.79 3.72 5.69 8.73 5.69 15.02 0 7.42-2.37 13.82-7.11 19.23-4.74 5.4-11.09 8.1-19.05 8.1-4.31 0-8.13-.86-11.47-2.59s-5.82-4.17-7.46-7.33c-1.64-3.16-2.46-6.55-2.46-10.17Zm35.26-8.84c0-2.93-.86-5.28-2.57-7.05s-3.92-2.65-6.62-2.65-5.04.83-7.11 2.48c-2.07 1.65-3.68 4.05-4.83 7.2s-1.72 6.04-1.72 8.69c0 3.28.89 5.88 2.67 7.8 1.78 1.93 4.02 2.89 6.73 2.89 3.39 0 6.24-1.45 8.54-4.35 3.28-4.11 4.91-9.11 4.91-15ZM1455.26 506.25h12.37l-5.65 27.11c-.69 3.25-1.03 5.27-1.03 6.08 0 1.32.49 2.46 1.47 3.41.98.95 2.23 1.42 3.75 1.42 1.09 0 2.17-.21 3.23-.62 1.06-.42 2.16-1.05 3.28-1.9a17.7 17.7 0 0 0 3.02-2.91c.89-1.09 1.72-2.53 2.5-4.31.54-1.32 1.13-3.48 1.77-6.47l4.57-21.81h12.37l-9.57 45.78h-11.55l1.29-6.21c-5.06 4.86-10.56 7.29-16.51 7.29-3.76 0-6.72-1.08-8.88-3.23s-3.23-5.04-3.23-8.67c0-1.58.49-4.73 1.47-9.44l5.35-25.52ZM1505.47 539.22l11.98-1.9c1.06 2.53 2.38 4.32 3.97 5.37 1.58 1.05 3.74 1.57 6.47 1.57s5.07-.63 6.77-1.9c1.18-.86 1.77-1.91 1.77-3.15 0-.83-.3-1.58-.91-2.24-.63-.63-2.34-1.41-5.13-2.33-7.47-2.47-12.1-4.43-13.88-5.86-2.79-2.24-4.18-5.17-4.18-8.79s1.35-6.74 4.05-9.35c3.76-3.65 9.35-5.48 16.77-5.48 5.89 0 10.35 1.08 13.36 3.23s4.93 5.07 5.73 8.75l-11.42 1.98c-.6-1.67-1.58-2.92-2.93-3.75-1.84-1.12-4.05-1.68-6.64-1.68s-4.45.43-5.58 1.29c-1.14.86-1.7 1.85-1.7 2.97s.58 2.1 1.72 2.84c.72.46 3.03 1.26 6.94 2.41 6.04 1.75 10.07 3.48 12.11 5.17 2.87 2.39 4.31 5.26 4.31 8.62 0 4.34-1.83 8.1-5.47 11.29-3.65 3.19-8.79 4.79-15.43 4.79s-11.72-1.21-15.32-3.64c-3.61-2.43-6.06-5.84-7.35-10.24ZM1608.1 532.97h-31.04c-.03.49-.04.86-.04 1.12 0 3.05.87 5.5 2.61 7.37 1.74 1.87 3.86 2.8 6.36 2.8 4.11 0 7.31-2.13 9.61-6.38l11.08 1.85c-2.16 4.46-5.04 7.8-8.64 10.02-3.61 2.23-7.65 3.34-12.13 3.34-6.15 0-11.15-1.95-15-5.84-3.85-3.89-5.78-9.04-5.78-15.45s1.74-11.84 5.22-16.73c4.74-6.61 11.51-9.92 20.3-9.92 5.6 0 10.06 1.73 13.36 5.2s4.96 8.31 4.96 14.55c0 2.99-.29 5.68-.86 8.06Zm-10.43-7.54c.03-.54.04-.96.04-1.25 0-3.39-.76-5.93-2.28-7.63-1.52-1.7-3.56-2.54-6.12-2.54s-4.85.96-6.88 2.89c-2.03 1.93-3.4 4.77-4.12 8.54h19.36Z" class="cls-1"/></g></svg>