<svg xmlns="http://www.w3.org/2000/svg" viewBox="0 0 82.25 157"><path d="M33.28 36.76a4.5 4.5 0 0 0-4.5 4.5v55.86a4.5 4.5 0 1 0 9 0V41.26a4.5 4.5 0 0 0-4.5-4.5Z" class="cls-1"/><path d="M77.75 36.63A32.17 32.17 0 0 1 45.62 4.79V4.5a4.5 4.5 0 0 0-4.5-4.5h-.01A41.16 41.16 0 0 0 0 41.13v59.13c0 9.41 7.65 17.06 17.06 17.06h11.73v27.96c0 6.45 5.25 11.71 11.71 11.72h1.26c6.46 0 11.72-5.26 11.72-11.72v-27.96h11.71c9.41 0 17.06-7.65 17.06-17.06V41.13a4.5 4.5 0 0 0-4.5-4.5ZM44.48 145.28c0 1.5-1.22 2.72-2.72 2.72h-1.25a2.72 2.72 0 0 1-2.72-2.72v-27.96h6.69v27.96Zm28.77-45.02a8.07 8.07 0 0 1-8.06 8.06H17.06A8.07 8.07 0 0 1 9 100.26V41.11A32.16 32.16 0 0 1 36.9 9.28a41.21 41.21 0 0 0 36.35 36.11v54.87Z" class="cls-1"/><path d="M44.48 54.26v42.86a4.5 4.5 0 1 0 9 0V54.26a4.5 4.5 0 1 0-9 0Z" class="cls-1"/></svg>