<?xml version="1.0" encoding="UTF-8"?>
<svg id="Layer_2" data-name="Layer 2" xmlns="http://www.w3.org/2000/svg" viewBox="0 0 170.32 170.32">
  <defs>
    <style>
      .cls-1, .cls-2 {
        stroke-width: 0px;
      }

      .cls-2 {
        fill: none;
      }
    </style>
  </defs>
  <g id="Layer_1-2" data-name="Layer 1">
    <g>
      <rect class="cls-2" width="170.32" height="170.32"/>
      <g>
        <path class="cls-1" d="M77.31,43.42c-2.49,0-4.5,2.01-4.5,4.5v55.86c0,2.49,2.01,4.5,4.5,4.5s4.5-2.01,4.5-4.5v-55.86c0-2.49-2.01-4.5-4.5-4.5Z"/>
        <path class="cls-1" d="M121.78,43.29c-17.62-.02-31.95-14.22-32.13-31.84v-.29c0-2.49-2.01-4.5-4.5-4.5h0c-22.7.03-41.09,18.43-41.11,41.13v59.13c0,9.41,7.65,17.06,17.06,17.06h11.73v27.96c0,6.45,5.25,11.71,11.71,11.72h1.26c6.46,0,11.72-5.26,11.72-11.72v-27.96h11.71c9.41,0,17.06-7.65,17.06-17.06v-59.13c0-2.49-2.01-4.5-4.5-4.5ZM88.51,151.94c0,1.5-1.22,2.72-2.72,2.72h-1.25c-1.5,0-2.72-1.22-2.72-2.72h0v-27.96h6.69s0,27.96,0,27.96ZM117.28,106.92c0,4.45-3.61,8.05-8.06,8.06h-48.13c-4.45,0-8.05-3.61-8.06-8.06v-59.15c.02-16.1,11.94-29.7,27.9-31.83,2.25,19.02,17.31,33.98,36.35,36.11v54.87Z"/>
        <path class="cls-1" d="M88.51,60.92v42.86c0,2.49,2.01,4.5,4.5,4.5s4.5-2.01,4.5-4.5v-42.86c0-2.49-2.01-4.5-4.5-4.5s-4.5,2.01-4.5,4.5Z"/>
      </g>
    </g>
  </g>
</svg>