<svg xmlns="http://www.w3.org/2000/svg" viewBox="0 0 32 33"><g clip-path="url(#a)"><path fill="#fcfdff" d="M16 3.37c4.27 0 4.78.02 6.46.1 1.56.06 2.4.32 2.97.54.75.3 1.28.64 1.84 1.2.56.56.9 1.1 1.2 1.83.21.57.47 1.42.54 2.97.08 1.7.1 2.2.1 6.47s-.02 4.78-.1 6.46a8.76 8.76 0 0 1-.55 2.97 4.95 4.95 0 0 1-1.2 1.83c-.55.57-1.09.91-1.83 1.2a8.8 8.8 0 0 1-2.97.55c-1.69.07-2.2.1-6.46.1-4.28 0-4.78-.03-6.46-.1a8.76 8.76 0 0 1-2.97-.55 4.95 4.95 0 0 1-1.84-1.2c-.56-.56-.9-1.09-1.2-1.83A8.8 8.8 0 0 1 3 22.94c-.08-1.69-.1-2.2-.1-6.46 0-4.28.02-4.79.1-6.47.07-1.56.33-2.4.55-2.97.29-.74.63-1.28 1.2-1.83.55-.57 1.08-.9 1.83-1.2a8.8 8.8 0 0 1 2.97-.55c1.68-.07 2.19-.09 6.46-.09Zm0-2.88c-4.34 0-4.89.02-6.6.1-1.7.07-2.86.34-3.88.74A7.8 7.8 0 0 0 2.7 3.18 7.84 7.84 0 0 0 .84 6C.44 7.03.17 8.19.09 9.89.02 11.6 0 12.14 0 16.49c0 4.34.02 4.89.1 6.6.07 1.7.34 2.86.74 3.87a7.8 7.8 0 0 0 1.85 2.84 7.82 7.82 0 0 0 2.83 1.84c1.02.4 2.18.67 3.88.75 1.7.07 2.25.1 6.6.1 4.34 0 4.88-.03 6.59-.1a11.7 11.7 0 0 0 3.88-.75 7.82 7.82 0 0 0 2.83-1.84 7.82 7.82 0 0 0 1.84-2.83c.4-1.02.67-2.18.75-3.88.07-1.7.1-2.25.1-6.6 0-4.34-.03-4.88-.1-6.59a11.7 11.7 0 0 0-.75-3.88 7.5 7.5 0 0 0-1.83-2.84 7.82 7.82 0 0 0-2.83-1.85C25.46.93 24.3.66 22.6.6 20.89.5 20.34.49 16 .49Z"/><path fill="#fcfdff" d="M16 8.27a8.22 8.22 0 1 0 0 16.44 8.22 8.22 0 0 0 0-16.44Zm0 13.55a5.33 5.33 0 1 1 0-10.66 5.33 5.33 0 0 1 0 10.66ZM26.46 7.94a1.92 1.92 0 1 1-3.84 0 1.92 1.92 0 0 1 3.84 0Z"/></g><defs><clipPath id="a"><path fill="#fcfdff" d="M0 0h32v32H0z" transform="translate(0 .49)"/></clipPath></defs></svg>