<svg xmlns="http://www.w3.org/2000/svg" viewBox="0 0 192 198"><g clip-path="url(#a)"><path fill="#88C69C" d="M191.93 152a21.9 21.9 0 0 0-2.13-11.27 28.66 28.66 0 0 1-9.79 6.1 43.01 43.01 0 0 1-.5 10.76 38.81 38.81 0 0 0 12.4-5.58l.02-.02ZM175.96 158.3a38.96 38.96 0 0 0 .74-10.47 29 29 0 0 1-13.35 0 38.84 38.84 0 0 0 .74 10.46 38.35 38.35 0 0 0 11.87 0ZM165 161.82a44.73 44.73 0 0 0 10.04 0 38.8 38.8 0 0 1-5.01 10.38 38.27 38.27 0 0 1-5.03-10.38ZM160.5 157.57a43.01 43.01 0 0 1-.48-10.76 29.1 29.1 0 0 1-9.8-6.1 21.9 21.9 0 0 0-2.12 11.26 38.82 38.82 0 0 0 12.39 5.58l.02.02ZM191.12 156.5a22 22 0 0 1-16.85 15.36 41.95 41.95 0 0 0 4.48-10.63 41.87 41.87 0 0 0 12.37-4.73ZM148.94 156.5a42.35 42.35 0 0 0 12.38 4.73 42.31 42.31 0 0 0 4.48 10.63 21.98 21.98 0 0 1-16.86-15.36ZM174.25 128.74a22.02 22.02 0 0 1 13.78 8.97 25.35 25.35 0 0 1-8.44 5.65 41.79 41.79 0 0 0-5.34-14.62ZM170.02 128.39a38.8 38.8 0 0 1 6.33 16.05 25.27 25.27 0 0 1-12.65 0 38.91 38.91 0 0 1 6.32-16.05ZM165.8 128.74a41.93 41.93 0 0 0-5.34 14.62 25.18 25.18 0 0 1-8.44-5.65c3.2-4.57 8.1-7.87 13.78-8.97Z"/><path fill="#6E96CE" d="M4.23 128.39A4.23 4.23 0 0 0 0 132.6v16.05h27.05v-16.05c0-2.33-1.9-4.22-4.23-4.22H4.22ZM27.05 152.04H0v5.92c0 2.33 1.9 4.22 4.23 4.22h.84a6.76 6.76 0 1 1 13.52 0h6.77a1.7 1.7 0 0 0 1.69-1.69v-8.45Z"/><path fill="#6E96CE" d="M15.21 162.18a3.39 3.39 0 0 0-3.38-3.38 3.39 3.39 0 0 0-3.38 3.38 3.39 3.39 0 0 0 3.38 3.38 3.39 3.39 0 0 0 3.38-3.38ZM32.12 133.46c-.93 0-1.7.76-1.7 1.69v25.34c0 .2.04.39.1.56a6.76 6.76 0 0 1 13.43 1.04 4.07 4.07 0 0 0 3.3-4.24 41.99 41.99 0 0 0-8.42-22.75 4.13 4.13 0 0 0-3.31-1.64H32.1h.02Z"/><path fill="#6E96CE" d="M40.57 162.18a3.39 3.39 0 0 0-3.38-3.38 3.39 3.39 0 0 0-3.38 3.38 3.39 3.39 0 0 0 3.38 3.38 3.39 3.39 0 0 0 3.38-3.38Z"/><path fill="#D6C29A" d="M92.48 9.45c0-.8-.42-1.52-.9-2.17a3.8 3.8 0 0 1-.79-2.26C90.8 2.69 93.06.8 95.86.8c2.81 0 5.08 1.89 5.08 4.22 0 .83-.3 1.6-.8 2.26-.49.65-.9 1.35-.9 2.17 0 .74.63 1.35 1.38 1.3 4.3-.26 8.53-.78 12.69-1.52a1.7 1.7 0 0 1 1.98 1.45c.5 4.04.8 8.13.84 12.28 0 .83-.66 1.49-1.48 1.49-.8 0-1.53-.42-2.17-.9a3.8 3.8 0 0 0-2.26-.8c-2.34 0-4.23 2.27-4.23 5.08 0 2.8 1.9 5.07 4.23 5.07.83 0 1.6-.3 2.26-.8.64-.49 1.35-.9 2.17-.9.69 0 1.25.6 1.2 1.3-.27 3.67-.71 7.32-1.34 10.9a1.67 1.67 0 0 1-1.37 1.37c-4.1.71-8.28 1.2-12.53 1.44a1.31 1.31 0 0 1-1.38-1.3c0-.8.42-1.52.9-2.16.48-.66.79-1.44.79-2.27 0-2.33-2.27-4.22-5.07-4.22-2.8 0-5.07 1.9-5.07 4.22 0 .83.28 1.6.8 2.27.48.64.89 1.35.89 2.16s-.66 1.47-1.49 1.45c-3.58-.1-7.12-.37-10.62-.8a1.7 1.7 0 0 1-1.45-1.98c.66-3.64 1.13-7.34 1.42-11.09a1.2 1.2 0 0 0-1.2-1.28c-.8 0-1.52.42-2.16.9a3.8 3.8 0 0 1-2.27.79c-2.33 0-4.23-2.27-4.23-5.07 0-2.8 1.9-5.07 4.23-5.07.83 0 1.6.29 2.27.8.64.48 1.35.89 2.16.89s1.5-.68 1.49-1.49c-.05-3.66-.29-7.3-.7-10.86-.06-.5.12-1.03.5-1.39a1.7 1.7 0 0 1 1.38-.49c3.03.36 6.09.58 9.2.66.8.02 1.48-.62 1.48-1.45v.02Z"/><g opacity=".1"><path fill="#E6E7EE" d="M9.96 113.98a86.91 86.91 0 0 1 46.03-81.62"/><path fill="#201E52" d="m55.99 32.36-11.55.2 5.95 9.9 5.6-10.1Zm-45.03 81.56c-.09-1.59-.14-3.17-.14-4.78h-2c0 1.65.05 3.27.14 4.89l2-.1Zm-.14-4.78a85.84 85.84 0 0 1 38.01-71.32l-1.12-1.66a87.84 87.84 0 0 0-38.89 72.98h2Z"/><path fill="#E6E7EE" d="m52.7 40.58 2.43-7.73-7.73-2.44 4.31-2.24 7.73 2.45L57 38.34l-4.3 2.24ZM134.95 30.99a86.92 86.92 0 0 1 48.87 79.97"/><path fill="#201E52" d="m139.24 33.23-.49.88.5-.88Zm44.58 77.72 5.45-10.18-11.54.37 6.09 9.81ZM134.5 31.88c1.42.7 2.84 1.44 4.24 2.23l.98-1.75c-1.44-.8-2.9-1.55-4.34-2.27l-.88 1.8Zm4.24 2.23a85.86 85.86 0 0 1 43.78 67.93l2-.17a87.86 87.86 0 0 0-44.8-69.5l-.98 1.74Z"/><path fill="#E6E7EE" d="m178.24 104.06 5.56 5.9 5.9-5.56-.13 4.85-5.9 5.56-5.57-5.9.14-4.85ZM143.53 182.5a87.02 87.02 0 0 1-93.75-.2"/><path fill="#201E52" d="m139.38 184.99-.5-.87.5.87Zm-89.6-2.69 5.83 9.97 5.72-10.03-11.55.06Zm93.22-.64c-1.34.85-2.7 1.67-4.11 2.46l.98 1.74c1.43-.8 2.83-1.64 4.2-2.51l-1.07-1.69Zm-4.11 2.46a85.95 85.95 0 0 1-80.84 1.75l-.9 1.78a87.95 87.95 0 0 0 82.72-1.79l-.98-1.74Z"/><path fill="#E6E7EE" d="m58.59 181.15-7.94 1.66 1.65 7.94-4.07-2.67-1.66-7.92 7.95-1.66 4.07 2.65Z"/></g></g><defs><clipPath id="a"><path fill="#fff" d="M0 0h192v197H0z" transform="translate(0 .8)"/></clipPath></defs></svg>