<svg xmlns="http://www.w3.org/2000/svg" viewBox="0 0 32 33"><g clip-path="url(#a)"><path fill="#fcfdff" d="M29.63.49H2.36A2.33 2.33 0 0 0 0 2.79v27.39a2.34 2.34 0 0 0 2.36 2.3h27.27c1.3 0 2.37-1.03 2.37-2.3V2.8C32 1.52 30.94.5 29.63.5ZM9.5 27.76H4.74V12.48H9.5v15.28ZM7.12 10.4a2.75 2.75 0 1 1-.01-5.5 2.75 2.75 0 0 1 0 5.5Zm20.15 17.36h-4.75v-7.43c0-1.77-.03-4.05-2.46-4.05-2.47 0-2.85 1.93-2.85 3.93v7.55h-4.74V12.48h4.55v2.09h.07a4.98 4.98 0 0 1 4.48-2.47c4.81 0 5.7 3.16 5.7 7.28v8.38Z"/></g><defs><clipPath id="a"><path fill="#fcfdff" d="M0 0h32v32H0z" transform="translate(0 .49)"/></clipPath></defs></svg>