<svg xmlns="http://www.w3.org/2000/svg" viewBox="0 0 429 419"><g clip-path="url(#a)"><path fill="#6E96CE" d="M412.9 72c11 31 10 66 2.6 97.4-14.6 62.1-54 118-107.6 152.7a253.2 253.2 0 0 1-183.5 35.7c-31-6-61.4-18.3-84.2-40.1a137.8 137.8 0 0 1-35.7-132 129.6 129.6 0 0 1 36.6-59.9c19-17.6 45.8-24.6 68.3-36.9 33.3-18 60.5-45.8 93.4-64.5A177.4 177.4 0 0 1 309.4 1c33.7 3.8 77.3 21.2 94.9 52.1 3.4 6.1 6.3 12.4 8.6 19Z" opacity=".1"/><path fill="#ABD7BA" d="M218.1 418.3c116.4 0 210.8-23.8 210.8-53.2 0-29.4-94.4-53.3-210.8-53.3S7.4 335.7 7.4 365.1s94.3 53.2 210.7 53.2Z"/><path fill="#F0F5FB" d="M218.1 418.3c116.4 0 210.8-23.8 210.8-53.2 0-29.4-94.4-53.3-210.8-53.3S7.4 335.7 7.4 365.1s94.3 53.2 210.7 53.2Z"/><path fill="#ABD7BA" d="M350.5 107.7V241l-5-.7V111.8c0-2.4-1.2-4.8-3.1-6.4-7.5-6-26.5-20.7-33.2-17.9-6.3 2.7-34.2 94.2-47.8 140.2a4540 4540 0 0 0-7.6 25.8l-6.6 1.2 7.6-28.1c13.3-47.8 40.3-140.3 50.8-145.1l.7-.2c3-.3 6.8.8 11 2.6a62.1 62.1 0 0 1 9.8 5 176.9 176.9 0 0 1 9 5.8l2.1 1.5a276 276 0 0 1 9.2 6.9l1.5 1.1a4.3 4.3 0 0 1 1.6 3.5Z"/><path fill="#ABD7BA" d="M356 77.6 317.2 84l-10 1.6h-.4c-1.1 0-2.2-.7-2.4-1.8-.1-.9.3-1.7 1.1-2.2l.9-.3 48.6-7.8c1.3-.2 2.5.5 2.8 1.7.2 1.2-.7 2.3-2 2.5ZM369 81.7l-42 7.2-4.6.8a3 3 0 0 1-.4 0c-1.1 0-2-.7-2.3-1.8-.2-1 .4-1.9 1.3-2.3l.6-.2 46.6-8c1.3-.3 2.5.5 2.7 1.7.2 1.2-.6 2.4-1.9 2.6ZM379 87 336 94.6l-4.8 1a2.4 2.4 0 0 1-2.7-2c-.2-1.3.5-2.5 1.7-2.8h.2l47.6-8.7c1.3-.3 2.5.6 2.8 2 .2 1.2-.7 2.5-2 2.7ZM388.2 92.1l-44.6 8-4.2.8h-.4a2.4 2.4 0 0 1-.5-4.8l48.8-8.7c1.3-.3 2.6.6 2.8 2 .2 1.2-.6 2.5-2 2.7ZM398.6 98.4c-.3.3-.7.5-1 .5l-47 8.5-1.8.3h-.5a2.4 2.4 0 0 1-.4-4.8l48.8-8.7a2.4 2.4 0 0 1 1.9 4.2Z"/><path fill="#201E52" d="M415.6 293s-7.3-12.8-24.3-8.5c-7.4 1-13.2 15.2-13.2 32.6 0 17.4 6.3 32.7 14 32.7l.1.3s13.4 3 21.2-3.8c7.9-6.7 2.2-53.3 2.2-53.3Z"/><path fill="#201E52" d="M409.2 347.8c7 0 12.6-13.2 12.6-29.5s-5.6-29.4-12.6-29.4-12.7 13.1-12.7 29.4c0 16.3 5.7 29.4 12.7 29.4Z"/><path fill="#fff" d="M412 316.4c0 9.3-3.2 16.8-7 16.8-.6 0-1 0-1.5-.3-3.2-1.6-5.6-8.4-5.6-16.5s2.4-15 5.6-16.5l1.4-.3c4 0 7.1 7.5 7.1 16.8Z"/><path fill="#fff" d="M409.2 316.4c0 8.1-2.5 15-5.7 16.5-3.2-1.6-5.6-8.4-5.6-16.5s2.4-15 5.6-16.5c3.2 1.6 5.7 8.4 5.7 16.5Z"/><path fill="#ABD7BA" d="M419.4 271.6c0 6.1.6 11.3-4.2 13.9-4.7 2.5-13.2 6.5-17 25.5-3.3 17 .5 22.7-5.3 24.2a5903 5903 0 0 1-52.8 13l-6.8 1.6-36.5-24.4-.9-.6-4-2.7 4-19 .5-2.1 19.2-27 33-33.2 16-9.8s38 .5 40 2.8c2 2.2 2.5 3.4 3.5 12.5 1 9.2-.2 12.8 6 14.6 5.3 1.5 5.4 3.9 5.3 8.4v2.3Z"/><path fill="#201E52" d="M334.8 317.7s-8.2-14.3-27.2-9.5c-8.2 1.1-14.8 17-14.8 36.4 0 19.5 7 36.5 15.7 36.6v.3s15 3.4 23.8-4.2c8.8-7.5 2.5-59.6 2.5-59.6Z"/><path fill="#201E52" d="M327.6 378.9c7.8 0 14.1-14.8 14.1-33 0-18.1-6.3-32.8-14.1-32.8-7.9 0-14.2 14.7-14.2 32.9 0 18.1 6.3 32.9 14.2 32.9Z"/><path fill="#fff" d="M330.7 343.8c0 10.4-3.5 18.8-7.9 18.8-.5 0-1 0-1.6-.3-3.6-1.8-6.3-9.4-6.3-18.5 0-9 2.7-16.6 6.3-18.4.5-.2 1-.4 1.6-.4 4.4 0 8 8.4 8 18.8Z"/><path fill="#fff" d="M327.5 343.8c0 9.1-2.7 16.7-6.3 18.5-3.6-1.8-6.3-9.4-6.3-18.5 0-9 2.7-16.6 6.3-18.4 3.6 1.8 6.3 9.4 6.3 18.4Z"/><path fill="#000" d="M415.2 285.5c-4.7 2.5-13.2 6.5-17 25.5-3.3 17 .5 22.7-5.3 24.2a5903 5903 0 0 1-52.8 13l-1-7.5 47.8-10.4s-1.7-55.3 32.5-61v2.3c0 6.1.6 11.3-4.2 13.8ZM357.4 285.8s6.3 4.3 9.6 1 26-18.8 36.5-21.3c0 0-34.4 24-45.5 34.4 0 0 5.7-3.1 0-11l-.6-3.1Z" opacity=".1"/><path fill="#FCFDFF" d="M290.7 191s2.3 25.2 14 31.4c0 0 9 1 17.5-4.2 4-2.5 12.2-26.5 13-28.8l-17.8-2.7-3.4 24s-7.8-7.6-12.3-15.2c.6-2.8-2-4.5-2.8-7-3.3-11-8.2 2.6-8.2 2.6Z"/><path fill="#ABD7BA" d="M356.3 153.8s5 0 7 4.5c0 0 19 7.8 22.6 13.2 3.6 5.4 2 26.9-2.5 36.2-4.5 9.2-13.3 12.6-13.3 12.6l-2 8.1-39.2-.4-3.8-24.6.1-11.6-8-4.4s2.4-18.1 5.8-19.8c3.4-1.7 18.2-7.8 18.2-7.8s1-3 3-3.8c2-.9 12-2.1 12-2.1Z"/><path fill="#FCFDFF" d="M384.5 203.6s-4.8 17.3-8 20.7c0 0-8.5.7-15-1-6.4-1.5-33-12.3-36.1-15.6-3.2-3.3 2.8-7.3 2.8-7.3s5.3 2 12.8 3.7c7.6 1.8 20.9 3 24.6 5.3l3-9.5s8.3-2.3 16 3.7ZM335.3 126s-.7 5.3 1.3 15.4c2.1 10 3.8 12.7 6.6 12.4 3-.3 3 1.3 3 1.3v6.3s2.8 11.3 4.5 12c1.8.6 7-8.7 8.2-11.3 1.2-2.6 1.2-14.3 1.2-14.3l.6-9.2s4-.8 3.4-5c-.6-4-5.4-9.6-5.4-9.6s-15-3.5-23.4 2Z"/><path fill="#201E52" d="M296 222.4s22 1.4 24.2 3.8c2.3 2.5 1.8 8.5 1.8 8.5l4.5 3.2-7.8 55.9S304.3 290 296 305v-82.6ZM360 129.4s-3 1.7-5.5 1.5c-2.5-.3-6-4.8-11-4.4-5 .4-9 3.8-10.7 2.4-1.6-1.3.8-5 .8-5l1.1-1.4s-.3-3-.3-5.6c0-2.5 4.1-6.4 12.6-7 8.4-.5 12.1 2.8 13.5 4.3.3.3 3 3.3 3.6 6.2.7 3.2-.5 7.8-.8 10.5-1.3-2.7-3.4-1.5-3.4-1.5Z"/><path stroke="#fff" stroke-linecap="round" stroke-linejoin="round" d="M337.8 122.7s7-4.2 15 1.7"/><path fill="#A3A3B8" d="M322.2 206.3a34.1 34.1 0 0 0-14-17.3 22.2 22.2 0 0 0-19.5-2.4 22.2 22.2 0 0 0-13.1 14.6c-.6 1.8-1 3.6-1.2 5.4l4.8.7a24 24 0 0 1 1-4.6c1.8-5.7 5.4-9.8 10.2-11.6 1.8-.6 3.6-1 5.5-1 3.3 0 6.7 1 9.9 3 2.6 1.6 5 3.7 7 6.2a31.6 31.6 0 0 1 5.7 27.8 17.5 17.5 0 0 1-10.2 11.6 16.6 16.6 0 0 1-12.4-.4v5.1c2.3.8 4.6 1.1 7 1.1 2.4 0 4.8-.4 7-1.3a22.2 22.2 0 0 0 13.3-14.6 36.2 36.2 0 0 0-1-22.3Z"/><path fill="#A3A3B8" d="M295.7 187.7s-2.5 17.4 3.7 22.8c6.1 5.5 20.3-2.3 20.3-2.3l2.2 6.4s-21.2 2.3-16.5 26.3l-9.9-1.2v-30.3l-8.5-1.1s.6-8.7-5.4-13.4c0 0 5.5-5 14.1-7.1Z"/><path fill="#FCFDFF" d="M326.7 197.1c-.5-1.9-1.4-4-3.2-4.5-.4-.1-.9-.2-1.3-.1-3.5 0-7.3 1.3-9.3 4.2-.3.4-.6.9-.6 1.4 0 .5.3 1 .8 1.1.4 0 .7-.1 1-.3 1.4-.7 2.8-1.6 4.4-2 .9-.2 1.8-.3 2.6 0l.7 1.1c-2.9.2-7.7 2-8.8 4.8-.1.3-.2.5-.1.8.2.6 1.1.6 1.8.4 2.4-.6 4.9-1 7.4-1.2-1 .1-1.8.5-2.8.6-1.6.3-3.4.7-4.3 2-.1.3-.2.6-.1 1 .1.3.5.4 1 .5 1.2.1 2.4-.2 3.7-.3 1.2 0 2.6.2 3.4 1.1l.1 3c1.8-.7 3-2.1 3.6-4a17 17 0 0 0 0-9.6Z"/><path fill="#201E52" d="M368.8 228.2s6.4 18.2-1.2 31c-2.9 4.8-35.4 5.4-35.4 5.4l-13.5 29.2-19.8-44.4 29.5-23.2 40.4 2Z"/><g stroke="#fff" stroke-linecap="round" stroke-linejoin="round" opacity=".2"><path d="M341.9 232.5c-5.5 1.7-13.5 4.3-21.8 7.6M335.8 233.8l-1.3-3.3"/></g><path fill="#fff" d="M284.7 187.3c-1.3 1.4-2.6 3.1-2.4 5 0 .4.2.9.5 1 .5.3 1 0 1.4-.3.6-.6 1-1.4 1.3-2.3.2-.8 1-5.4-.8-3.4Z"/><path fill="#fff" d="M289.1 189a19 19 0 0 1-2.6 3.2v-.1c-.6-.4-1-1.1-1-1.8s0-1.4.3-2c.3-1.5 1-2.9 2.2-3.8l.7-.3.8.2 1.2.7c-.5 1.3-.8 2.6-1.6 3.8Z"/><path fill="#FCFDFF" d="M292.6 182.3c-2.3 1.3-3.6 4.8-4 7.2 0 .8.1 1.7 1 2 1 .1 2-.5 2.4-1.3.6-.8.8-1.8 1-2.7.4-1 .9-1.7 1.7-2.3.7-.4 2-.3 2.2-1.4.4-2-3.2-2-4.3-1.5Z"/><path fill="#ABD7BA" d="M292.6 43v165.6l-19 .1-7 1.4V82.7l-41.4 7-.4.1.7 111.8-20.1-2V60.1l5.2-1.8 14.2 2.9 41.4-9.7.4-9.2v-.8l7-2.1 19 3.4ZM401.6 232.7V119.3l.2-12c0-3.3.5-6.9-1.2-9.7-3-5-8.5-8.5-13.4-11.6a87 87 0 0 0-29.8-13c-13.4-2.7-61.9 137.8-61.9 137.8l.5 11.6s51.3-146 64.4-143.6c7.6 1.3 14.9 4.6 21.4 8.8 3.6 2.3 7.7 4.2 10.7 7.3 4.6 4.5 4 10.3 4 16.2v121l5.1.6Z"/><path fill="#DDD3B9" d="M294.5 344.3v34.3l-10.6 2.8-34.8-6.8-5.9 1.7v16.2l-17.1 4.4-35.8-7.3-5 1.3v17.4l-22.8 6.2-32.1-6.5v-16.7l-3.7-.1-36.9 9.3-18-4.1v-15.3l-8-.8-31.7 8.6-11.8-3v-32l142.3-5 8.6-.3 123.3-4.4Z"/><path fill="#000" d="M92.8 384.8v15.7l34-9.3-34-6.4ZM226 380.2v16.7l-35.7-7.3 35.8-9.4ZM284 381.4v-16.7l-34.3 9.7 34.2 7ZM34.3 374.6l31.8 5.7-31.8 8.6v-14.3Z" opacity=".1"/><path fill="#fff" d="M296 209.4V349l-133.4 29-148.2-18.8v-150l148.2-13.8L296 209.4Z"/><path fill="#000" d="m147.7 213 15.6-1.2 14.1 1.1v7.9l-14.1-1.2-15.6 1.5v-8.2ZM14.5 278.3H27v7.4l-12.5-.1v-7.3ZM211.8 277v8.3l21.6-1v-7l-21.6-.3ZM63.9 334.7v8.5l24.6 2.5V336l-24.6-1.4Z" opacity=".1"/><path fill="#E6E6ED" d="M164 90.4c-6.2-3.3-9.1-.5-11.4-3.3-2.2-2.8 6.3-10.2-10.7-17.6 0 0-1.1-15.8-24.4-16.4-23.2-.5-17 15.8-23.1 19.8-6.3 4-8-2.3-14.2 1.7-6.2 4-3.4 11.9-8.5 13-5 1.2-11.8-5-18-1-6.3 4-6.3 7.3-9.1 7.3-2.9 0-8.5-2.3-12 0l-7.3 5h143.2s1.7-5-4.5-8.5Z"/><path fill="#C2D4EA" d="m79.3 88.2-2.6 1.1Z"/><path fill="#E6E6ED" d="M170.9 137.8c-2.5-1.3-3.6-.2-4.5-1.3-.8-1.1 2.5-4-4.2-6.9 0 0-.4-6.2-9.5-6.4-9-.2-6.6 6.2-9 7.7-2.5 1.6-3.1-.8-5.6.7-2.4 1.5-1.3 4.7-3.3 5-2 .5-4.6-2-7-.4-2.5 1.6-2.5 3-3.6 3-1 0-3.3-1-4.6 0l-2.9 2h56s.6-2-1.8-3.4Z"/><path fill="#C2D4EA" d="m137.8 136.9-1 .5Z"/></g><defs><clipPath id="a"><path fill="#fff" d="M0 0h428.9v418.3H0z"/></clipPath></defs></svg>