<svg xmlns="http://www.w3.org/2000/svg" viewBox="0 0 32 33"><path d="M15 8c0-.5-.2-.9-.5-1.3-.3-.3-.5-.8-.5-1.3 0-1.4 1.3-2.5 3-2.5s3 1.1 3 2.5c0 .5-.2 1-.5 1.3-.3.4-.5.8-.5 1.3s.4.8.8.8c2.6-.2 5-.5 7.5-1a1 1 0 0 1 1.2 1c.3 2.3.5 4.8.5 7.2 0 .5-.4.9-.9.9s-.9-.2-1.3-.5c-.3-.3-.8-.5-1.3-.5-1.4 0-2.5 1.3-2.5 3s1.1 3 2.5 3c.5 0 1-.2 1.3-.5.4-.3.8-.5 1.3-.5.4 0 .8.3.7.8-.1 2.1-.4 4.3-.8 6.4 0 .4-.4.8-.8.8-2.4.5-4.9.7-7.4.9a.8.8 0 0 1-.8-.8c0-.5.2-.9.5-1.3.3-.3.5-.8.5-1.3 0-1.4-1.3-2.5-3-2.5s-3 1.1-3 2.5c0 .5.2 1 .5 1.3.3.4.5.8.5 1.3s-.4.9-.9.9c-2.1 0-4.2-.2-6.3-.5a1 1 0 0 1-.8-1.2c.4-2.1.7-4.3.8-6.5 0-.5-.3-.8-.7-.8-.5 0-.9.2-1.3.5-.3.3-.8.5-1.3.5-1.4 0-2.5-1.3-2.5-3s1.1-3 2.5-3c.5 0 1 .2 1.3.5.4.3.8.5 1.3.5s.9-.4.9-.9c0-2.2-.2-4.3-.4-6.4a1 1 0 0 1 1-1.1l5.5.4c.5 0 .9-.4.9-.9Z"/></svg>