<svg xmlns="http://www.w3.org/2000/svg" viewBox="0 0 2940 255"><path d="M196 80a40 40 0 1 0 0-80 40 40 0 0 0 0 80Zm104 0a40 40 0 1 0 0-80 40 40 0 0 0 0 80Zm104 0a40 40 0 1 0 0-80 40 40 0 0 0 0 80Zm104 0a40 40 0 1 0 0-80 40 40 0 0 0 0 80Zm104 0a40 40 0 1 0 0-80 40 40 0 0 0 0 80Zm104 0a40 40 0 1 0 0-80 40 40 0 0 0 0 80ZM92 80a40 40 0 1 0 0-80 40 40 0 0 0 0 80Zm832 0a40 40 0 1 0 0-80 40 40 0 0 0 0 80Zm104 0a40 40 0 1 0 0-80 40 40 0 0 0 0 80Zm104 0a40 40 0 1 0 0-80 40 40 0 0 0 0 80Zm104 0a40 40 0 1 0 0-80 40 40 0 0 0 0 80Zm104 0a40 40 0 1 0 0-80 40 40 0 0 0 0 80Zm104 0a40 40 0 1 0 0-80 40 40 0 0 0 0 80Zm-624 0a40 40 0 1 0 0-80 40 40 0 0 0 0 80Zm832 0a40 40 0 1 0 0-80 40 40 0 0 0 0 80Zm104 0a40 40 0 1 0 0-80 40 40 0 0 0 0 80Zm104 0a40 40 0 1 0 0-80 40 40 0 0 0 0 80Zm104 0a40 40 0 1 0 0-80 40 40 0 0 0 0 80Zm104 0a40 40 0 1 0 0-80 40 40 0 0 0 0 80Zm104 0a40 40 0 1 0 0-80 40 40 0 0 0 0 80Zm-624 0a40 40 0 1 0 0-80 40 40 0 0 0 0 80Zm832 0a40 40 0 1 0 0-80 40 40 0 0 0 0 80Zm104 0a40 40 0 1 0 0-80 40 40 0 0 0 0 80Zm104 0a40 40 0 1 0 0-80 40 40 0 0 0 0 80Zm104 0a40 40 0 1 0 0-80 40 40 0 0 0 0 80Zm104 0a40 40 0 1 0 0-80 40 40 0 0 0 0 80Zm104 0a40 40 0 1 0 0-80 40 40 0 0 0 0 80Zm-624 0a40 40 0 1 0 0-80 40 40 0 0 0 0 80ZM144 168a40 40 0 1 0 0-80 40 40 0 0 0 0 80Zm104 0a40 40 0 1 0 0-80 40 40 0 0 0 0 80Zm104 0a40 40 0 1 0 0-80 40 40 0 0 0 0 80Zm104 0a40 40 0 1 0 0-80 40 40 0 0 0 0 80Zm104 0a40 40 0 1 0 0-80 40 40 0 0 0 0 80Zm104 0a40 40 0 1 0 0-80 40 40 0 0 0 0 80Zm-624 0a40 40 0 1 0 0-80 40 40 0 0 0 0 80Zm832 0a40 40 0 1 0 0-80 40 40 0 0 0 0 80Zm104 0a40 40 0 1 0 0-80 40 40 0 0 0 0 80Zm104 0a40 40 0 1 0 0-80 40 40 0 0 0 0 80Zm104 0a40 40 0 1 0 0-80 40 40 0 0 0 0 80Zm104 0a40 40 0 1 0 0-80 40 40 0 0 0 0 80Zm104 0a40 40 0 1 0 0-80 40 40 0 0 0 0 80Zm-624 0a40 40 0 1 0 0-80 40 40 0 0 0 0 80Zm832 0a40 40 0 1 0 0-80 40 40 0 0 0 0 80Zm104 0a40 40 0 1 0 0-80 40 40 0 0 0 0 80Zm104 0a40 40 0 1 0 0-80 40 40 0 0 0 0 80Zm104 0a40 40 0 1 0 0-80 40 40 0 0 0 0 80Zm104 0a40 40 0 1 0 0-80 40 40 0 0 0 0 80Zm104 0a40 40 0 1 0 0-80 40 40 0 0 0 0 80Zm-624 0a40 40 0 1 0 0-80 40 40 0 0 0 0 80Zm832 0a40 40 0 1 0 0-80 40 40 0 0 0 0 80Zm104 0a40 40 0 1 0 0-80 40 40 0 0 0 0 80Zm104 0a40 40 0 1 0 0-80 40 40 0 0 0 0 80Zm104 0a40 40 0 1 0 0-80 40 40 0 0 0 0 80Zm104 0a40 40 0 1 0 0-80 40 40 0 0 0 0 80Zm104 0a40 40 0 1 0 0-80 40 40 0 0 0 0 80Zm-624 0a40 40 0 1 0 0-80 40 40 0 0 0 0 80ZM196 255a40 40 0 1 0 0-80 40 40 0 0 0 0 80Zm104 0a40 40 0 1 0 0-80 40 40 0 0 0 0 80Zm104 0a40 40 0 1 0 0-80 40 40 0 0 0 0 80Zm104 0a40 40 0 1 0 0-80 40 40 0 0 0 0 80Zm104 0a40 40 0 1 0 0-80 40 40 0 0 0 0 80Zm104 0a40 40 0 1 0 0-80 40 40 0 0 0 0 80Zm-624 0a40 40 0 1 0 0-80 40 40 0 0 0 0 80Zm832 0a40 40 0 1 0 0-80 40 40 0 0 0 0 80Zm104 0a40 40 0 1 0 0-80 40 40 0 0 0 0 80Zm104 0a40 40 0 1 0 0-80 40 40 0 0 0 0 80Zm104 0a40 40 0 1 0 0-80 40 40 0 0 0 0 80Zm104 0a40 40 0 1 0 0-80 40 40 0 0 0 0 80Zm104 0a40 40 0 1 0 0-80 40 40 0 0 0 0 80Zm-624 0a40 40 0 1 0 0-80 40 40 0 0 0 0 80Zm832 0a40 40 0 1 0 0-80 40 40 0 0 0 0 80Zm104 0a40 40 0 1 0 0-80 40 40 0 0 0 0 80Zm104 0a40 40 0 1 0 0-80 40 40 0 0 0 0 80Zm104 0a40 40 0 1 0 0-80 40 40 0 0 0 0 80Zm104 0a40 40 0 1 0 0-80 40 40 0 0 0 0 80Zm104 0a40 40 0 1 0 0-80 40 40 0 0 0 0 80Zm-624 0a40 40 0 1 0 0-80 40 40 0 0 0 0 80Zm832 0a40 40 0 1 0 0-80 40 40 0 0 0 0 80Zm104 0a40 40 0 1 0 0-80 40 40 0 0 0 0 80Zm104 0a40 40 0 1 0 0-80 40 40 0 0 0 0 80Zm104 0a40 40 0 1 0 0-80 40 40 0 0 0 0 80Zm104 0a40 40 0 1 0 0-80 40 40 0 0 0 0 80Zm104 0a40 40 0 1 0 0-80 40 40 0 0 0 0 80Zm-624 0a40 40 0 1 0 0-80 40 40 0 0 0 0 80Z"/></svg>