<svg xmlns="http://www.w3.org/2000/svg" viewBox="0 0 240 145"><g clip-path="url(#a)"><path fill="#CDE7D7" d="M183.8 143.4c-3.1-2.6-5-6.8-4.5-10.8a10 10 0 0 1 7.5-8.5c3.9-.9 8.4 1.5 9.6 5.4.6-7.5 1.4-15.2 5.3-21.5 3.6-5.8 9.8-9.9 16.4-10.6 6.7-.7 13.8 2 18 7.3 4.1 5.3 5.2 13 2.2 19.1a27.5 27.5 0 0 1-10.2 10.6 66.1 66.1 0 0 1-45.4 10l1-1Z"/><path fill="#FCFDFF" d="M229.4 99.6a108.7 108.7 0 0 0-32.1 43.6c-.3.8.9 1.1 1.2.4a108.6 108.6 0 0 1 31.8-43.1c.7-.5-.2-1.4-.9-1Z"/><path fill="#CDE7D7" d="M77.3 142.7c4.2-3.6 6.7-9.3 6-14.8a13.8 13.8 0 0 0-10.2-11.7c-5.4-1.2-11.5 2-13.2 7.4A66 66 0 0 0 52.6 94 31.2 31.2 0 0 0 30 79.5a28 28 0 0 0-24.6 10 25.5 25.5 0 0 0-3.1 26.3c3 6.2 8.4 10.7 14.1 14.5A90.8 90.8 0 0 0 78.7 144"/><path fill="#FCFDFF" d="M14.5 82.5a149.3 149.3 0 0 1 44.2 60c.4 1-1.3 1.4-1.7.4a148.7 148.7 0 0 0-43.7-59.2c-.9-.7.3-1.9 1.2-1.2Z"/><path fill="#EDE6D7" d="M172.3 144.7H71.6V41a40 40 0 0 1 39.8-40h21a40 40 0 0 1 39.9 40v103.7Z"/><path fill="#C3D4EB" d="M151.3 144.7H71.6V41a39.8 39.8 0 0 1 35-39.7h.6c2.8-.4 5.7-.4 8.5 0h.6a39.6 39.6 0 0 1 35 39.7v103.7Z"/><path fill="#201E52" d="M144.8 98.3a4.4 4.4 0 1 0 0-8.8 4.4 4.4 0 0 0 0 8.8Z"/><path fill="#6E96CE" d="M164 141.6h-3.4l-1.6-13.1h5v13Z"/><path fill="#201E52" d="M158.2 140.6h6.6v4.1H154a4.1 4.1 0 0 1 4.1-4.1Z"/><path fill="#6E96CE" d="M180.9 141.6h-3.4l-1.6-13.1h5v13Z"/><path fill="#201E52" d="M175 140.6h6.6v4.1h-10.7a4.1 4.1 0 0 1 4.2-4.1Z"/><path fill="#6E96CE" d="M147 94.8a3 3 0 0 1 1.3-4.4l11.5-31.8 5.7 3-13.2 30.5a3 3 0 0 1-1.4 3.7 3 3 0 0 1-3.8-1ZM179.1 100.7a3 3 0 0 1-.8-4.5l-3.5-33.6 6.4.3 1.5 33a3 3 0 0 1-3.6 4.8ZM168.9 52.7a6.8 6.8 0 1 0 0-13.6 6.8 6.8 0 0 0 0 13.6Z"/><path fill="#201E52" d="M179 93h-20.3c0-.3 3.6-24 1-31.8a3.3 3.3 0 0 1 1.6-4c3.8-1.8 11.1-4 17.3 1.4a7.8 7.8 0 0 1 2.6 6.4L179 93Z"/><path fill="#201E52" d="m162.6 72.5-9.2-1.9 4.3-10.2a3.9 3.9 0 0 1 4.7-2.8 3.9 3.9 0 0 1 2.8 4.7l-2.6 10.2ZM174.4 76l-.6-12.8c-.4-2.3 1-4.6 3-5 2.1-.3 4.2 1.3 4.6 3.7l2 12-9 2ZM178.4 91.6c3.3 12.5 3.7 28.5 2.8 46l-4.5-.6-8-33.3-4.4 33.8-5-.3c-1.4-18.2-2.9-34-.5-44.3l19.6-1.3ZM173.3 51.1c-1.2 1.4-3.6.7-3.8-1.2v-.4c.1-.8.6-1.6.5-2.4l-.2-.6c-1-1.4-3.4.6-4.4-.7-.5-.7.1-1.9-.3-2.7-.6-1.1-2.3-.6-3.4-1.2-1.3-.7-1.2-2.6-.4-3.7 1-1.4 2.7-2.1 4.4-2.2 1.7-.1 3.4.3 5 1a10 10 0 0 1 4.7 3.2 8 8 0 0 1 .8 6.8c-.4 1.4-1.8 3-2.9 4.1Z"/><path fill="#E6E7EE" d="M231.7 144.9H28.1l-.3-.1a.3.3 0 0 1 0-.5l.3-.1h203.6a.3.3 0 0 1 .3.3v.3h-.3Z"/><path fill="#FCFDFF" d="M129.4 114.6H93.5a1.8 1.8 0 0 1-1.8-1.7V32.5a1.8 1.8 0 0 1 1.8-1.7h35.9a1.8 1.8 0 0 1 1.8 1.7V113a1.8 1.8 0 0 1-1.8 1.7Z"/><path fill="#C3D4EB" d="M131.2 56.7H91.7v.6h39.5v-.6ZM131.3 88.3H92v.6h39.4v-.6Z"/><path fill="#C3D4EB" d="M104.7 30.8h-.6v84.1h.6V30.8ZM118.5 30.8h-.6v84.1h.6V30.8Z"/></g><defs><clipPath id="a"><path fill="#fff" d="M0 0h240v144H0z" transform="translate(0 1)"/></clipPath></defs></svg>