<svg width="24" height="24" viewBox="0 0 24 24" xmlns="http://www.w3.org/2000/svg"><path fill-rule="evenodd" d="M8.13 9.16a3.75 3.75 0 1 1 .71-1.33l1.14.66a.75.75 0 0 1 .22 1.1v.01a.75.75 0 0 1-1.04.16 1.42 1.42 0 0 0-.11-.07l-.92-.53ZM3.3 5.63a2.25 2.25 0 0 1 4 2.06.76.76 0 0 0-.13.23 2.25 2.25 0 1 1-3.87-2.3Zm10.05 2.64a5.07 5.07 0 0 0-3.6 4.77 1.41 1.41 0 0 1-.7 1.2l-.96.56a3.75 3.75 0 1 0 .73 1.3l13.73-7.92a.75.75 0 0 0-.18-1.37l-.8-.22a5.25 5.25 0 0 0-2.9.05l-5.32 1.63ZM4.12 15.3a2.25 2.25 0 1 0 2.23 3.92 2.25 2.25 0 0 0-2.23-3.92ZM12 12.75a.75.75 0 1 0 0-1.5.75.75 0 0 0 0 1.5Z" clip-rule="evenodd"/><path d="M16.37 12.62a.75.75 0 0 1 .75 0l5.43 3.13a.75.75 0 0 1-.18 1.37l-.8.22c-.95.25-1.95.24-2.9-.05l-5.14-1.58a.75.75 0 0 1-.16-1.36l3-1.73Z"/></svg>