<svg width="24" height="24" viewBox="0 0 24 24" xmlns="http://www.w3.org/2000/svg"><path fill-rule="evenodd" d="M7.5 5.25a3 3 0 0 1 3-3h3a3 3 0 0 1 3 3v.2c.93.09 1.86.2 2.77.34a2.93 2.93 0 0 1 2.48 2.92v3.03c0 1.21-.73 2.35-1.94 2.75a24.73 24.73 0 0 1-15.62 0 2.87 2.87 0 0 1-1.94-2.75V8.7c0-1.44 1.02-2.7 2.48-2.92.92-.14 1.84-.25 2.77-.33v-.21Zm7.5 0v.09c-2-.12-4-.12-6 0v-.09a1.5 1.5 0 0 1 1.5-1.5h3a1.5 1.5 0 0 1 1.5 1.5Zm-3 8.25a.75.75 0 1 0 0-1.5.75.75 0 0 0 0 1.5Z" clip-rule="evenodd"/><path d="M3 18.4v-2.8c.23.13.47.23.71.31a26.22 26.22 0 0 0 16.58 0c.25-.08.49-.18.71-.3v2.79a2.93 2.93 0 0 1-2.52 2.92 49.1 49.1 0 0 1-12.96 0A2.93 2.93 0 0 1 3 18.4Z"/></svg>