<svg xmlns="http://www.w3.org/2000/svg" xmlns:xlink="http://www.w3.org/1999/xlink" viewBox="0 0 498 407"><defs><path id="reuse-0" fill="#263238" d="M213.99 324.38c0 7.83-3.57 14.19-7.98 14.19s-7.76-5.97-7.97-13.46l-.01-.73.01-.73c.21-7.5 3.71-13.46 7.97-13.46s7.98 6.35 7.98 14.19Z"/><path id="reuse-1" fill="#263238" d="M403.31 324.38c0 7.83-3.57 14.19-7.98 14.19-4.1 0-7.48-5.51-7.93-12.58l-.03-.69-.02-.92.02-.92.03-.69c.45-7.08 3.83-12.58 7.93-12.58 4.41 0 7.98 6.35 7.98 14.19Z"/></defs><g clip-path="url(#a)"><path fill="#F1F8F6" d="M229.64 121.89c43.48-41.46 66.44-110.52 135.8-120.85 52.03-7.73 92.83 28.73 116.42 75.14 61.97 121.85-68.94 261.33-173.16 305.29-107.95 45.61-282.3 37.35-306.91-99.4-10.14-56.34 23.6-96.14 77.66-120.05 45.85-20.29 116.07-7.6 150.18-40.13h.01Z"/><path fill="#263238" d="M301.14 296.34h-17c-8.85 0-16 12.83-16 28.66s7.17 28.65 16 28.65h17c8.85 0 16-12.83 16-28.65 0-15.82-7.15-28.66-16-28.66Z"/><path fill="#6E96CE" d="m438.86 302.48-297.7-.21V112.12h297.7v190.36Z"/><path fill="#263238" d="M438.85 112.12H237.09v190.35h201.76V112.12Z" opacity=".3"/><path fill="#fff" d="M237.09 112.12h-95.93v194.11h95.93V112.12Z" opacity=".2"/><path stroke="#fff" stroke-linecap="round" stroke-linejoin="round" stroke-width="2" d="M141.88 120.96h296.98M141.88 129.19h296.98M141.88 137.41h296.98M141.88 145.63h296.98M141.88 153.86h296.98M141.88 162.08h296.98M141.88 170.3h296.98M141.88 178.52h296.98M141.88 186.75h296.98M141.88 194.97h296.98M141.88 203.19h296.98M141.88 211.42h296.98M141.88 219.64h296.98M141.88 227.86h296.98M141.88 236.08h296.98M141.88 244.31h296.98M141.88 252.53h296.98M141.88 260.75h296.98M141.88 268.98h296.98M141.88 277.2h296.98M141.88 285.42h296.98M141.88 293.65h296.98" opacity=".1"/><path fill="#263238" d="M86.53 300.08H70.8c-8.2 0-14.84 11.88-14.84 26.54 0 14.66 6.64 26.53 14.84 26.53h15.73c8.2 0 14.84-11.88 14.84-26.53s-6.64-26.54-14.84-26.54ZM77.78 248.25h-7.44c-1.46.05-2.66-1.51-2.69-3.49a3.21 3.21 0 0 1 0-.62l2-22.47c.25-2.31 1.68-4 3.4-4.11h7.51c1.45 0 2.65 1.53 2.68 3.51v.6l-2 22.47c-.3 2.28-1.78 4.05-3.46 4.11Z"/><path fill="#6E96CE" d="m85.22 174.03-14.35 77.39 156.23 61.2-1.09-152.52-34.36-1H97.53c-5.66-.05-10.65 6.03-12.31 14.93Z"/><path fill="#6E96CE" d="M201.46 186.48c-5.83-.26-11.06 4.52-12.77 11.65l-11.82 49.52h-22.75l-1.24 65.33h74.83"/><path fill="#C3D4EB" d="M87.46 243.49c-2.29 0-4.14-2.94-4.14-6.56 0-.63.06-1.26.18-1.88l8.59-45.44c.72-3.77 2.92-6.35 5.41-6.34h82.18c.89 0 1.62 1.14 1.62 2.56 0 .25-.02.5-.07.75-1.8 9.36-7.65 40.37-9.89 52.23-.52 2.78-2.14 4.68-4 4.68H87.46Z"/><path fill="#6E96CE" d="M163.08 263.63c0 .8-.06 1.59-.17 2.38l-.43 2.93-.25 1.73-1.84 12.64-3 20.55-.83 5.71H40.27v-5.71l.08-20.55.11-12.29v-5c-1-6.6 2.19-13 7.05-14.33a6.47 6.47 0 0 1 1.75-.23h104.86c4.95-.04 8.96 5.44 8.96 12.17Z"/><path fill="#C3D4EB" d="M222.19 189.42v48.71c0 2.95-1.51 5.35-3.38 5.36h-28.42c-1.87 0-3.38-2.4-3.38-5.36 0-.48.04-.96.12-1.44l8.76-49.8c.42-2.39 1.82-4 3.38-3.91l19.66 1.08c1.82.11 3.26 2.48 3.26 5.36Z"/><path fill="#fff" d="M135.4 183.27h-15.7l-18.03 60.22h15.71l18.02-60.22ZM147.62 183.27h-7.5l-18.02 60.22h7.5l18.02-60.22Z" opacity=".1"/><path fill="#99B5DD" d="M171.91 283.31h-14.14l-25.43 14.94v5.61h60.87v-20.55h-21.3ZM66.65 298.25v5.61H40.29l.08-20.55h.86l25.42 14.94ZM162.69 269.66c0 .38-.17.75-.46 1a1.3 1.3 0 0 1-.9.35H40.46v-2.72h120.9c.47 0 .9.24 1.15.64.13.22.19.47.18.73Z"/><path fill="#99B5DD" d="M444.2 307.42v.54a5 5 0 0 1-5 5H41.99a5 5 0 0 1-5-5v-.54a5 5 0 0 1 5-5h397.2a5 5 0 0 1 5 5h.01Z"/><path fill="#000" d="M130.07 306.53h-59.2v2.89h59.2v-2.89Z"/><path fill="#fff" d="M55.12 307.97a1.65 1.65 0 1 1 0-.01v.01ZM144.21 307.97a1.65 1.65 0 1 1-3.3 0 1.65 1.65 0 0 1 3.3 0Z"/><use xlink:href="#reuse-0"/><path fill="#fff" d="M213.99 324.38c0 7.83-3.57 14.19-7.98 14.19s-7.76-5.97-7.97-13.46l-.01-.73.01-.73c.21-7.5 3.71-13.46 7.97-13.46s7.98 6.35 7.98 14.19Z"/><path fill="#263238" d="m208.16 295.57-17.09-.03c-8.89 0-16.1 12.9-16.1 28.81 0 15.91 7.21 28.8 16.1 28.8h16.26c.28.03.55.04.83.04 8.9 0 16.11-12.9 16.11-28.81 0-15.91-7.2-28.81-16.1-28.81Zm-2.15 43c-4.26 0-7.76-5.97-7.97-13.46v-1.46c.21-7.5 3.71-13.46 7.97-13.46s7.98 6.35 7.98 14.19-3.57 14.19-7.98 14.19Z"/><use xlink:href="#reuse-0"/><path fill="#FCFDFF" d="M213.99 324.38c0 7.83-3.57 14.19-7.98 14.19s-7.76-5.97-7.97-13.46l-.01-.73.01-.73c.21-7.5 3.71-13.46 7.97-13.46s7.98 6.35 7.98 14.19Z"/><use xlink:href="#reuse-1"/><path fill="#fff" d="M403.31 324.38c0 7.83-3.57 14.19-7.98 14.19-4.1 0-7.48-5.51-7.93-12.58l-.03-.69v-1.84l.03-.69c.45-7.08 3.83-12.58 7.93-12.58 4.41 0 7.98 6.35 7.98 14.19Z"/><path fill="#263238" d="m397.48 295.57-17.08-.03c-8.9 0-16.11 12.9-16.11 28.81 0 15.91 7.21 28.8 16.11 28.8l17.08.04c8.9 0 16.11-12.9 16.11-28.81 0-15.91-7.21-28.81-16.11-28.81Zm-2.15 43c-4.1 0-7.48-5.51-7.93-12.58l-.03-.69-.02-.92.02-.92.03-.69c.45-7.08 3.83-12.58 7.93-12.58 4.41 0 7.98 6.35 7.98 14.19s-3.57 14.19-7.98 14.19Z"/><use xlink:href="#reuse-1"/><path fill="#FCFDFF" d="M403.31 324.38c0 7.83-3.57 14.19-7.98 14.19-4.1 0-7.48-5.51-7.93-12.58l-.03-.69-.02-.92.02-.92.03-.69c.45-7.08 3.83-12.58 7.93-12.58 4.41 0 7.98 6.35 7.98 14.19Z"/></g><defs><clipPath id="a"><path fill="#fff" d="M0 0h497.86v406.38H0z"/></clipPath></defs></svg>