<svg xmlns="http://www.w3.org/2000/svg"><path fill-rule="evenodd" d="M12 2.25a9.75 9.75 0 1 0 0 19.5 9.75 9.75 0 0 0 0-19.5ZM8.55 4.5a8.25 8.25 0 1 0 11.67 8.22l-.46-.46a2.25 2.25 0 0 1-.42-.59l-1.08-2.16a.41.41 0 0 0-.67-.1.83.83 0 0 1-.8.2l-1.28-.36a.89.89 0 0 0-.74 1.6l.59.39c.59.4.67 1.23.17 1.73l-.2.2c-.21.21-.33.5-.33.8v.4c0 .42-.11.82-.32 1.16l-1.31 2.2a2.11 2.11 0 0 1-1.81 1.02 1.06 1.06 0 0 1-1.06-1.05v-1.18c0-.92-.56-1.74-1.41-2.09l-.66-.26a2.25 2.25 0 0 1-1.38-2.46v-.04c.05-.28.15-.54.3-.79l.08-.15A2.25 2.25 0 0 1 9.81 9.7l1.17.23a1.12 1.12 0 0 0 1.3-.8l.21-.72a1.13 1.13 0 0 0-.58-1.32l-.66-.33-.1.1a2.25 2.25 0 0 1-1.58.65h-.18c-.25 0-.49.1-.66.27a.93.93 0 0 1-1.46-1.13L8.55 4.5Z" clip-rule="evenodd"/></svg>