<svg xmlns="http://www.w3.org/2000/svg" viewBox="0 0 278 175"><path fill="#EEF3FB" d="M137.02 174.54a40.62 40.62 0 1 0 0-81.25 40.62 40.62 0 0 0 0 81.25Z"/><path fill="#ABD7BA" d="M125.86 118.68a5.74 5.74 0 1 0 0-11.48 5.74 5.74 0 0 0 0 11.48Z"/><path fill="#ABD7BA" d="M135.04 140.47a14.53 14.53 0 1 0 0-29.06 14.53 14.53 0 0 0 0 29.06Z"/><path fill="#99B5DD" d="M136.24 140.47a11.8 11.8 0 1 0 0-23.62 11.8 11.8 0 0 0 0 23.62Z"/><path fill="#ABD7BA" d="M144.26 116.62a13.53 13.53 0 0 0-20.56 11.8c6.02 1.52 12.34 2.67 18.75.37l1.52-3.71.89 3.71c1.95.8 3.91 1.47 5.87 0a13.82 13.82 0 0 0-6.47-12.17Z"/><path fill="#ABD7BA" d="M120.53 97.37c-3.97-1.82-8.95-.96-12.25 1.89a13.27 13.27 0 0 0-4.23 11.8c.65 4.4 3.32 8.2 5.79 11.9 2.47 3.7 4.88 7.77 4.88 12.22a12.1 12.1 0 0 1-12.09 12.1c3.76 1.62 7.7 3.27 11.78 3.08 4.1-.2 8.38-2.82 9.05-6.87.48-2.9-.95-5.75-2.14-8.45a59.8 59.8 0 0 1-4.18-13.75c-.4-2.26-.65-4.64.08-6.81a8 8 0 0 1 7.95-5.25l1.35-1.22c.6-4.32-2.03-8.82-6-10.64Z"/><path fill="#201E52" d="M167.59 161.1a40.6 40.6 0 0 1-56.84 4.1l3.49-9.72a10.46 10.46 0 0 1 8.88-6.1l2.21-.13 5.29-4.56s14.24-.5 14.03-.75l8.63 5.19-.01-.04 3.39.2a10.45 10.45 0 0 1 8.88 6.1l2.05 5.7Z"/><path fill="#EEF3FB" d="M81.47 40.7A40.62 40.62 0 1 1 40.92 0a40.52 40.52 0 0 1 40.55 40.7Z"/><path fill="#201E52" d="M22.01 27.4c1.68-5.34 5.5-10.25 10.79-12.06 5.28-1.81 13.02.94 16.99 4.9 7.26 7.24 9.03 32.11 4.04 39.97-.99-.05-4.41-.09-5.42-.12l-1.42-4.74v4.69a251 251 0 0 0-4.84-.1 21.06 21.06 0 0 1-20.8-20.55c-.13-5.21 0-9.87.66-11.98Z"/><path fill="#99B5DD" d="M40.24 45.15a11.58 11.58 0 1 0 0-23.15 11.58 11.58 0 0 0 0 23.15Z"/><path fill="#201E52" d="m30.25 23.4 13.33-6.67a16.75 16.75 0 0 1 9.81 13.88l.33 3.98-5.58-1.42-.6-5.09-.96 4.7-2.57-.66.02-7.9-2.58 7.9-9.2-2.12-2-6.6Z"/><path fill="#ABD7BA" d="M70.99 67.5a40.6 40.6 0 0 1-56.84 4.11l3.49-9.72a10.46 10.46 0 0 1 8.88-6.1l2.22-.13 5.28-4.56s14.24-.51 14.03-.75l8.63 5.18v-.03l3.38.2a10.45 10.45 0 0 1 8.88 6.1L71 67.5Z"/><path fill="#EEF3FB" d="M136.9 81.25a40.62 40.62 0 1 0 0-81.25 40.62 40.62 0 0 0 0 81.25Z"/><path fill="#A4A4BA" d="M138.56 44.77a13.25 13.25 0 1 0 0-26.5 13.25 13.25 0 0 0 0 26.5Z"/><path fill="#E2D4B9" d="M150.22 22.77s3.45-6.6-4.14-7.2c0 0-6.47-5.86-13.06-1.07 0 0-3.6 0-5.56 4.07 0 0-2.83-1.07-3.45 1.8 0 0-2.07 6 0 11.39 2.07 5.4 2.75 6 2.75 6s-1.45-6.7 6.83-7.3c8.28-.6 15.87-5.78 16.56.8.7 6.6 1.45 3.62 1.45 3.62s6.55-9.41-1.38-12.11Z"/><path fill="#201E52" d="M167.23 67.63a40.6 40.6 0 0 1-56.84 4.11l3.49-9.72a10.46 10.46 0 0 1 8.88-6.1l2.21-.14 5.3-4.55s14.23-.51 14.02-.76l8.63 5.2-.01-.04 3.4.2a10.45 10.45 0 0 1 8.87 6.1l2.05 5.7Z"/><path fill="#EEF3FB" d="M235.9 81.25a40.62 40.62 0 1 0 0-81.25 40.62 40.62 0 0 0 0 81.25Z"/><path fill="#201E52" d="M219.33 24.73c-.56 3-1.47 5.92-2.72 8.7-7.17 15.15 13.24 10.21 20.53 10.21 7.98 0 15.6 4.2 14.44-14.43-.5-7.96-6.47-14.44-14.44-14.44-6.81 0-16.39 3.03-17.81 9.96Z"/><path fill="#99B5DD" d="M235.95 43.64a11.73 11.73 0 1 0 0-23.46 11.73 11.73 0 0 0 0 23.46Z"/><path fill="#201E52" d="M227.98 19.95a13.44 13.44 0 0 1 20.43 11.73c-5.98 1.5-12.26 2.65-18.63.36l-1.5-3.69-.9 3.69c-1.94.8-3.88 1.46-5.83 0a13.73 13.73 0 0 1 6.43-12.1Z"/><path fill="#E2D4B9" d="M267.5 67.63a40.6 40.6 0 0 1-56.84 4.11l3.49-9.72a10.46 10.46 0 0 1 8.88-6.1l2.21-.14 5.29-4.55s14.24-.51 14.03-.76l8.63 5.2-.01-.04 3.39.2a10.45 10.45 0 0 1 8.88 6.1l2.05 5.7Z"/><path fill="#EEF3FB" d="M237.38 174.54a40.62 40.62 0 1 0 0-81.24 40.62 40.62 0 0 0 0 81.24Z"/><path fill="#99B5DD" d="M236.26 138.95a12.97 12.97 0 1 0 0-25.93 12.97 12.97 0 0 0 0 25.93Zm31.59 22.15a40.6 40.6 0 0 1-56.83 4.1l3.48-9.72a10.46 10.46 0 0 1 8.88-6.1l2.22-.13 5.29-4.56s14.24-.5 14.03-.75l8.62 5.19v-.04l3.39.2a10.45 10.45 0 0 1 8.88 6.1l2.04 5.7Z"/><path fill="#201E52" d="M249.93 117.94a16.72 16.72 0 0 0-7-9.52c-2.72-1.75-6.12-2.63-9.2-1.71-3.09.92-5.64 3.94-5.44 7.21-1.11-.38-2.38.13-3.2 1a7.32 7.32 0 0 0-1.56 3.16 20.2 20.2 0 0 0 .19 11.17l-.06.52c1.5-.25 2.64-1.54 3.35-2.91.71-1.38 1.12-2.9 1.9-4.25.76-1.34 2.04-2.53 3.56-2.58l-.13 2.33 3.93-2.02-.94 2.23 3.44-1.43-.38 2.15a5.11 5.11 0 0 1 7.03-2.27 6.8 6.8 0 0 1 2.78 3.9c.48 1.57.57 3.23.66 4.88 1.77-3.7 2.15-7.9 1.07-11.86Z"/><path fill="#EEF3FB" d="M40.62 174.54a40.62 40.62 0 1 0 0-81.24 40.62 40.62 0 0 0 0 81.24Z"/><path fill="#99B5DD" d="M40.99 135.61a16.2 16.2 0 1 0 0-32.4 16.2 16.2 0 0 0 0 32.4Z"/><path fill="#E6E7EE" d="M41 137.74a14.47 14.47 0 1 0 0-28.94 14.47 14.47 0 0 0 0 28.94Z"/><path fill="#201E52" d="M70.99 160.61a40.61 40.61 0 0 1-56.84 4.1l3.49-9.71a10.45 10.45 0 0 1 8.88-6.1l2.22-.14 5.28-4.56s14.24-.5 14.03-.75l8.63 5.19v-.04l3.38.21a10.45 10.45 0 0 1 8.88 6.1l2.05 5.7Z"/><path fill="#99B5DD" d="M56.26 118.2c.1-1.09.15-2.17.14-3.26a15.3 15.3 0 0 0-1.15-6.26 9.63 9.63 0 0 0-5.04-4.87 9.2 9.2 0 0 0-6.9 0c-1.99-1.25-4.2-2.25-6.54-2.38-2.33-.12-4.8.75-6.24 2.65-.32.5-.68.98-1.09 1.42-1.15 1.07-2.91.92-4.45.7l2.07 1.77-2.5.65c.97.6 1.95 1.18 2.92 1.77-2.83 1.7-4.11 5.4-3.77 8.77.32 3.18 1.85 6.1 3.7 8.68.73-1.55.57-3.4.56-5.14-.01-.56.02-1.13.1-1.69 6.2 1.49 12.7 2.44 19.28.08l1.32-3.23.56.06.76 3.17c1.74.71 3.47 1.33 5.21.68.09.5.14 1 .18 1.48.15-.58.28-1.16.4-1.74.22-.13.44-.27.65-.43.04-.96-.01-1.93-.17-2.89Z"/></svg>